<svg width="391" height="160" viewBox="0 0 391 160" fill="none" xmlns="http://www.w3.org/2000/svg">
<path d="M114.69 141.75L70.11 144.68L85.86 154.07L56.45 159.43L102.72 159.28L87.7 148.68L114.69 141.75Z" fill="#FFCE00"/>
<path d="M98.7001 11.76C99.2401 9.13996 100.83 6.83996 102.45 5.07996C104.53 2.82996 106.64 1.45996 106.64 1.45996C106.64 1.45996 108.08 3.58996 109.1 6.52996C109.88 8.76996 110.41 11.48 109.88 14.06C109.28 17 108.18 19.57 106.88 21.41C105.38 23.54 103.59 24.7 101.94 24.36C100.78 24.12 99.8601 23.18 99.2201 21.76C98.1501 19.4 97.8801 15.71 98.7001 11.76Z" fill="#FFCE00"/>
<path d="M124.85 23.9799C126.38 21.7899 128.75 20.2999 130.93 19.3199C133.73 18.0699 136.21 17.6499 136.21 17.6499C136.21 17.6499 136.69 20.1699 136.46 23.2799C136.29 25.6499 135.71 28.3399 134.2 30.5099C132.48 32.9699 130.46 34.8999 128.54 36.0799C126.32 37.4399 124.22 37.7999 122.83 36.8399C121.86 36.1599 121.38 34.9299 121.35 33.3799C121.32 30.7799 122.54 27.2899 124.85 23.9799Z" fill="#FFCE00"/>
<path d="M144.24 40.3501C146.48 38.8901 149.23 38.3901 151.62 38.3001C154.68 38.1801 157.15 38.7201 157.15 38.7201C157.15 38.7201 156.65 41.2401 155.29 44.0401C154.25 46.1701 152.71 48.4601 150.49 49.9001C147.98 51.5401 145.39 52.5801 143.16 52.9601C140.59 53.3901 138.51 52.9501 137.58 51.5301C136.93 50.5401 136.95 49.2201 137.5 47.7701C138.44 45.3401 140.87 42.5601 144.24 40.3501Z" fill="#FFCE00"/>
<path d="M155.4 62.2302C157.93 61.3702 160.72 61.5902 163.06 62.1002C166.05 62.7502 168.3 63.8902 168.3 63.8902C168.3 63.8902 167.18 66.2102 165.16 68.5702C163.62 70.3702 161.55 72.2002 159.05 73.0402C156.21 74.0002 153.44 74.3502 151.19 74.1602C148.59 73.9402 146.68 72.9802 146.14 71.3802C145.76 70.2602 146.11 68.9902 147.01 67.7202C148.52 65.6002 151.58 63.5202 155.4 62.2302Z" fill="#FFCE00"/>
<path d="M159.16 86.7198C161.83 86.8798 164.33 88.1298 166.31 89.4898C168.84 91.2198 170.49 93.1298 170.49 93.1298C170.49 93.1298 168.59 94.8498 165.82 96.2798C163.71 97.3698 161.11 98.2798 158.47 98.1198C155.48 97.9398 152.78 97.2198 150.76 96.1998C148.44 95.0098 147.03 93.4098 147.14 91.7198C147.21 90.5398 148.01 89.4898 149.33 88.6598C151.52 87.2598 155.13 86.4798 159.16 86.7198Z" fill="#FFCE00"/>
<path d="M152.88 109.58C155.39 110.5 157.44 112.41 158.94 114.27C160.87 116.65 161.91 118.95 161.91 118.95C161.91 118.95 159.59 120.06 156.53 120.64C154.2 121.08 151.44 121.21 148.96 120.31C146.14 119.28 143.76 117.83 142.13 116.27C140.25 114.47 139.35 112.53 139.93 110.95C140.34 109.84 141.4 109.06 142.9 108.64C145.4 107.92 149.09 108.2 152.88 109.58Z" fill="#FFCE00"/>
<path d="M141.69 130.73C143.3 132.86 143.97 135.58 144.22 137.97C144.54 141.02 144.16 143.51 144.16 143.51C144.16 143.51 141.61 143.18 138.74 142C136.55 141.1 134.16 139.71 132.58 137.6C130.78 135.2 129.57 132.69 129.05 130.49C128.45 127.95 128.76 125.84 130.11 124.83C131.05 124.12 132.38 124.05 133.86 124.51C136.32 125.26 139.26 127.5 141.69 130.73Z" fill="#FFCE00"/>
<path d="M79.4201 10.49C78.9401 7.86001 77.4001 5.52 75.8201 3.72C73.8001 1.41 71.7101 0 71.7101 0C71.7101 0 70.2201 2.1 69.1401 5.01C68.3101 7.23 67.7101 9.93 68.1901 12.52C68.7201 15.47 69.7601 18.07 71.0201 19.94C72.4701 22.1 74.2301 23.31 75.8901 23.01C77.0501 22.8 78.0001 21.88 78.6701 20.48C79.7901 18.14 80.1401 14.46 79.4201 10.49Z" fill="#FFCE00"/>
<path d="M52.6299 18.9998C51.3399 16.6598 49.1299 14.9298 47.0599 13.7298C44.4099 12.1898 41.9799 11.5098 41.9799 11.5098C41.9799 11.5098 41.2399 13.9698 41.1399 17.0798C41.0599 19.4498 41.3599 22.1898 42.6299 24.5098C44.0799 27.1398 45.8799 29.2698 47.6799 30.6398C49.7499 32.2298 51.7999 32.8098 53.2799 31.9898C54.3199 31.4198 54.9199 30.2498 55.1099 28.6998C55.4199 26.1298 54.5799 22.5398 52.6299 18.9998Z" fill="#FFCE00"/>
<path d="M31.63 33.2502C29.56 31.5602 26.87 30.7802 24.5 30.4402C21.47 30.0002 18.96 30.2802 18.96 30.2802C18.96 30.2802 19.19 32.8402 20.26 35.7602C21.07 37.9902 22.37 40.4202 24.42 42.0902C26.74 43.9902 29.21 45.2902 31.39 45.9002C33.9 46.6002 36.02 46.3702 37.09 45.0702C37.84 44.1502 37.96 42.8402 37.56 41.3302C36.88 38.8302 34.75 35.8002 31.63 33.2502Z" fill="#FFCE00"/>
<path d="M18.24 53.8397C15.81 52.7297 13.01 52.6498 10.63 52.9098C7.57997 53.2498 5.22998 54.1398 5.22998 54.1398C5.22998 54.1398 6.09999 56.5598 7.85999 59.1198C9.20999 61.0698 11.07 63.1098 13.47 64.2098C16.2 65.4598 18.91 66.1098 21.17 66.1498C23.78 66.1998 25.77 65.4498 26.48 63.9098C26.97 62.8398 26.76 61.5298 26 60.1798C24.73 57.9198 21.91 55.5297 18.24 53.8397Z" fill="#FFCE00"/>
<path d="M11.94 77.8098C9.26999 77.6898 6.64999 78.6698 4.53999 79.8098C1.83999 81.2698 0 82.9898 0 82.9898C0 82.9898 1.72 84.9098 4.31 86.6098C6.29 87.9098 8.78999 89.0898 11.43 89.2098C14.43 89.3398 17.19 88.9098 19.29 88.0998C21.72 87.1598 23.29 85.7098 23.36 84.0298C23.41 82.8498 22.73 81.7198 21.51 80.7498C19.49 79.1398 15.98 77.9898 11.94 77.8098Z" fill="#FFCE00"/>
<path d="M15.8001 101.21C13.2101 101.86 10.9701 103.55 9.28009 105.24C7.11009 107.41 5.84009 109.58 5.84009 109.58C5.84009 109.58 8.03009 110.93 11.0101 111.82C13.2801 112.5 16.0101 112.92 18.5701 112.28C21.4801 111.55 24.0001 110.35 25.7901 108.97C27.8501 107.38 28.9401 105.54 28.5301 103.91C28.2401 102.76 27.2601 101.88 25.8201 101.3C23.4101 100.33 19.7201 100.23 15.8001 101.21Z" fill="#FFCE00"/>
<path d="M30.5499 126.5C28.7299 128.46 27.7799 131.09 27.2799 133.43C26.6399 136.43 26.7599 138.95 26.7599 138.95C26.7599 138.95 29.3299 138.88 32.3099 138.01C34.5799 137.34 37.0999 136.21 38.8999 134.27C40.9399 132.07 42.3999 129.69 43.1499 127.56C44.0099 125.1 43.9199 122.97 42.6899 121.82C41.8299 121.01 40.5199 120.8 38.9899 121.11C36.4599 121.62 33.2999 123.54 30.5499 126.5Z" fill="#FFCE00"/>
<path d="M62.37 113.56C73.63 122.47 89.52 120.95 101.3 114.99C101.6 114.82 101.9 114.65 102.19 114.47C117.13 105.47 122.45 88.2699 118.7 71.3799C118.54 70.8699 118.37 70.3599 118.19 69.8599C116.93 66.3399 115.14 62.8699 112.81 59.6599C111.48 57.8299 109.98 56.0599 108.3 54.4299C106.62 52.7999 104.78 51.2899 102.78 49.9399C98.8 47.2399 94.21 45.2099 89.31 44.1499C84.41 43.0799 79.22 43.0299 74.18 44.0499C71.7 44.5399 69.26 45.4199 66.98 46.5699C64.7 47.7199 62.59 49.2199 60.72 50.9399C58.87 52.6999 57.25 54.6899 55.95 56.8699C54.65 59.0399 53.71 61.4099 53.06 63.8299C52.46 66.2599 52.15 68.7599 52.24 71.2299L52.27 72.1599L52.35 73.0799L52.39 73.5399L52.45 73.9999L52.57 74.9199C52.79 76.1299 53.04 77.3399 53.4 78.5099C54.06 80.7899 55.13 82.9699 56.47 84.9099C57.15 85.8799 57.88 86.8099 58.68 87.6699C59.48 88.5299 60.34 89.3299 61.25 90.0799C64.89 93.0299 69.35 94.8899 73.86 95.3599C74.99 95.4699 76.11 95.5099 77.23 95.4699C78.35 95.4199 79.46 95.2899 80.55 95.0999L81.4 94.9199C81.48 94.8999 81.54 94.8899 81.6 94.8699L81.77 94.8199L82.12 94.7299C82.6 94.5899 83.12 94.4199 83.6 94.2299C84.58 93.8499 85.5 93.3799 86.37 92.8399C88.11 91.7499 89.59 90.3299 90.76 88.7099C91.93 87.0899 92.73 85.2599 93.18 83.3699C93.41 82.4299 93.54 81.4599 93.58 80.4999C93.62 79.5399 93.56 78.5699 93.42 77.6199C93.39 77.3799 93.35 77.1399 93.3 76.9099L93.24 76.5599L93.22 76.4699C93.3 76.7799 93.23 76.4899 93.24 76.5399L93.18 76.3299L92.95 75.4799L92.84 75.0599L92.72 74.7899C92.56 74.4299 92.48 74.0799 92.24 73.6599L91.94 73.0499C91.84 72.8399 91.7 72.6599 91.59 72.4699C90.64 70.9299 89.39 69.5799 87.93 68.5299C86.48 67.4699 84.83 66.7099 83.14 66.2699C81.45 65.8199 79.7 65.7199 78.02 65.9299L77.86 65.9399C77.9 65.9299 77.65 65.9699 77.93 65.9199L77.83 65.9399L77.45 66.0099C77.2 66.0599 76.94 66.1099 76.69 66.1599C76.5 66.2099 76.37 66.2599 76.2 66.3099L75.96 66.3799L75.84 66.4099L75.71 66.4699C75.36 66.6299 74.98 66.7299 74.65 66.9299L74.14 67.1899L73.67 67.4999C73.34 67.6899 73.07 67.9599 72.77 68.1799C72.61 68.2899 72.5 68.4399 72.36 68.5599C72.23 68.6999 72.08 68.8199 71.96 68.9599C71.48 69.5299 71.02 70.1099 70.7 70.7699C70.02 72.0599 69.62 73.4899 69.61 74.9299C69.61 75.1099 69.62 75.2899 69.62 75.4699C69.63 75.6499 69.62 75.8299 69.65 76.0099C69.67 76.1899 69.69 76.3699 69.72 76.5399L69.75 76.8099C69.78 76.9499 69.71 76.6999 69.73 76.7599L69.75 76.8399L69.79 76.9999C69.84 77.2199 69.89 77.4299 69.94 77.6499C69.96 77.7799 69.99 77.8099 70.01 77.8899L70.08 78.0899C70.14 78.3399 70.3 78.6599 70.43 78.9699C71 80.1799 71.9 81.2099 72.93 82.0199C73.96 82.8399 75.17 83.3599 76.38 83.6499L76.83 83.7599C76.98 83.7799 77.14 83.7999 77.29 83.8199C77.44 83.8399 77.6 83.8699 77.75 83.8799C77.9 83.8899 78.06 83.8899 78.21 83.8999C78.51 83.9299 78.81 83.8999 79.11 83.8799L79.33 83.8699H79.39C79.49 83.8499 79.32 83.8899 79.37 83.8799L79.5 83.8599C79.68 83.8299 79.85 83.7999 80.03 83.7699L80.16 83.7499C80.2 83.7399 80.22 83.7299 80.25 83.7299L80.42 83.6799C80.54 83.6499 80.65 83.6299 80.77 83.5899C81.02 83.4899 81.29 83.4199 81.52 83.2899C81.64 83.2299 81.76 83.1699 81.88 83.1099C81.99 83.0399 82.1 82.9699 82.22 82.8999C82.45 82.7699 82.64 82.5899 82.85 82.4399C83.64 81.7799 84.24 80.9399 84.62 80.0599C85 79.1699 85.15 78.2299 85.11 77.3399C85.1 77.1199 85.07 76.8999 85.05 76.6799L85.04 76.5999C85.04 76.6099 85.02 76.5199 85.05 76.6099L85.04 76.5599L85 76.3799C84.97 76.2599 84.95 76.1399 84.92 76.0199C84.86 75.8199 84.81 75.6599 84.76 75.4799C84.68 75.2999 84.61 75.1099 84.53 74.9299C84.19 74.2299 83.73 73.6299 83.23 73.1599C82.72 72.6899 82.19 72.3499 81.68 72.0799C80.65 71.5699 79.74 71.4299 79.13 71.3999C78.82 71.3699 78.59 71.3899 78.44 71.3899C78.28 71.3899 78.2 71.3999 78.2 71.3999L78.09 70.7399C78.09 70.7399 78.18 70.7199 78.35 70.6899C78.52 70.6599 78.77 70.5899 79.11 70.5699C79.79 70.4999 80.85 70.4899 82.15 70.9099C82.8 71.1199 83.5 71.4499 84.2 71.9399C84.9 72.4299 85.59 73.0999 86.17 73.9599C86.31 74.1799 86.44 74.4099 86.58 74.6499C86.7 74.8999 86.84 75.1899 86.94 75.4499C86.98 75.5699 87.02 75.6799 87.06 75.7999L87.12 75.9799L87.14 76.0299L87.17 76.1299L87.19 76.2299C87.25 76.5099 87.32 76.7999 87.37 77.0899C87.56 78.2599 87.53 79.5899 87.14 80.9099C86.76 82.2299 86.06 83.5699 84.97 84.6799C84.69 84.9399 84.42 85.2399 84.09 85.4699C83.93 85.5899 83.78 85.7099 83.61 85.8399C83.44 85.9499 83.27 86.0499 83.1 86.1599C82.76 86.3899 82.38 86.5499 82.01 86.7399C81.82 86.8299 81.59 86.8999 81.38 86.9799L81.05 87.0999L80.89 87.1499L80.76 87.1899C80.59 87.2399 80.42 87.2799 80.25 87.3299L80.12 87.3699C80.12 87.3699 79.91 87.4099 79.96 87.3999L79.88 87.4099L79.57 87.4599C79.16 87.5299 78.73 87.6099 78.3 87.6199C78.08 87.6299 77.87 87.6499 77.65 87.6599C77.43 87.6699 77.22 87.6499 76.99 87.6499C76.77 87.6399 76.55 87.6299 76.33 87.6199C76.11 87.5899 75.89 87.5699 75.67 87.5399C75.45 87.5099 75.22 87.4899 75 87.4399C74.78 87.3899 74.56 87.3399 74.33 87.2799C73.88 87.1899 73.45 87.0199 73 86.8699C72.56 86.7199 72.14 86.4999 71.7 86.3199C71.29 86.0899 70.85 85.8699 70.45 85.5999C68.82 84.5499 67.31 83.0999 66.23 81.2699C65.97 80.7999 65.7 80.3599 65.48 79.7799L65.31 79.3599C65.26 79.2299 65.19 79.0599 65.16 78.9699C65.09 78.7599 65.02 78.5499 64.96 78.3399L64.91 78.1799L64.88 78.0999C64.88 78.0999 64.81 77.7999 64.83 77.8799L64.75 77.4899C64.7 77.2199 64.65 76.9599 64.59 76.6899C64.53 76.4299 64.51 76.1499 64.48 75.8799C64.45 75.6099 64.43 75.3299 64.4 75.0599C64.26 72.8399 64.69 70.5099 65.66 68.3499C66.13 67.2599 66.79 66.2399 67.52 65.2699C67.71 65.0299 67.92 64.8099 68.12 64.5799C68.33 64.3599 68.52 64.1099 68.75 63.9099C69.2 63.4999 69.65 63.0499 70.16 62.6999C70.41 62.5199 70.66 62.3299 70.92 62.1399C71.19 61.9799 71.46 61.8199 71.73 61.6499C72.26 61.3099 72.85 61.0699 73.42 60.7899L73.64 60.6899L73.88 60.5999L74.37 60.4299C74.69 60.3199 75.05 60.1999 75.35 60.1099C75.6 60.0499 75.85 59.9899 76.11 59.9199L76.49 59.8299L76.59 59.8099C76.93 59.7499 76.75 59.7799 76.86 59.7599L77.09 59.7299C79.53 59.2999 82.11 59.3499 84.62 59.8899C87.14 60.4199 89.59 61.4599 91.8 62.9599C94 64.4499 95.99 66.3999 97.49 68.7399C97.67 69.0399 97.88 69.3199 98.04 69.6299L98.53 70.5599C98.86 71.1499 99.14 71.9099 99.42 72.6199L99.63 73.1699L99.75 73.5899L99.99 74.4299L100.05 74.6399C100.08 74.7499 100.03 74.5299 100.12 74.9199L100.15 75.0499L100.25 75.5599C100.33 75.8999 100.39 76.2399 100.43 76.5899C100.86 79.3399 100.77 82.2399 100.1 85.0399C99.44 87.8399 98.18 90.5299 96.45 92.8899C94.72 95.2599 92.48 97.2599 89.94 98.7799C88.67 99.5399 87.32 100.17 85.92 100.66C85.22 100.91 84.53 101.11 83.78 101.3L83.2 101.44L82.91 101.51C82.81 101.53 82.71 101.55 82.64 101.57L81.62 101.75C80.91 101.85 80.19 101.93 79.48 101.99C78.76 102.05 78.04 102.08 77.32 102.09C75.85 102.06 74.34 102.06 73 101.79C72.43 101.71 71.86 101.61 71.29 101.5C66.19 100.46 61.34 98.0799 57.4 94.6099C55.2 92.6899 53.31 90.4099 51.78 87.9099C50.29 85.3799 49.17 82.6399 48.53 79.7499C47.3 74.1299 47.66 68.1699 49.54 62.7999C50.5 60.1199 51.77 57.5699 53.4 55.2799C54.98 52.9599 56.91 50.9099 59.04 49.1199C60.11 48.2399 61.21 47.3999 62.39 46.6699C62.96 46.2799 63.57 45.9599 64.16 45.6099C64.46 45.4399 64.77 45.2899 65.07 45.1299C65.37 44.9699 65.68 44.8099 65.99 44.6799C68.47 43.5099 71.07 42.6499 73.75 42.1199C79.04 41.0899 84.47 41.0399 89.7 41.8799C94.94 42.7199 99.99 44.4599 104.58 46.9499C109.17 49.4399 113.29 52.7299 116.64 56.5899C119.58 59.9699 121.92 63.7999 123.54 67.8399C123.77 68.4199 123.99 68.9999 124.2 69.5799C130.33 89.1999 122 111.9 103.86 121.47C103.53 121.65 103.19 121.83 102.85 122C102.51 122.17 102.17 122.34 101.83 122.5C87.96 129.31 72.07 124.77 62.31 113.89C62.36 113.6 62.37 113.56 62.37 113.56Z" fill="#FFD000"/>
<path d="M234.85 67.5898H230.67L229.01 63.2598H221.41L219.84 67.5898H215.76L223.18 48.5498H227.25L234.85 67.5898ZM227.77 60.0698L225.15 52.9998L222.59 60.0698H227.77Z" fill="#0C86A7"/>
<path d="M249.06 62.9097C248.31 66.2297 246.18 67.8997 242.67 67.8997C240.55 67.8997 238.9 67.2197 237.72 65.8597C236.6 64.5797 236.04 62.8597 236.04 60.6997C236.04 58.5197 236.6 56.7897 237.73 55.4997C238.92 54.1497 240.58 53.4697 242.73 53.4697C245.97 53.4697 248.02 54.9297 248.87 57.8597L245.27 58.5097C245.03 57.0597 244.2 56.3397 242.78 56.3397C240.79 56.3397 239.79 57.6997 239.79 60.4297C239.79 63.4197 240.8 64.9097 242.83 64.9097C244.26 64.9097 245.14 64.0397 245.47 62.2897L249.06 62.9097Z" fill="#0C86A7"/>
<path d="M263.86 62.9097C263.11 66.2297 260.98 67.8997 257.47 67.8997C255.35 67.8997 253.7 67.2197 252.52 65.8597C251.4 64.5797 250.84 62.8597 250.84 60.6997C250.84 58.5197 251.4 56.7897 252.53 55.4997C253.72 54.1497 255.38 53.4697 257.53 53.4697C260.77 53.4697 262.82 54.9297 263.67 57.8597L260.07 58.5097C259.83 57.0597 259 56.3397 257.58 56.3397C255.59 56.3397 254.59 57.6997 254.59 60.4297C254.59 63.4197 255.6 64.9097 257.63 64.9097C259.06 64.9097 259.94 64.0397 260.27 62.2897L263.86 62.9097Z" fill="#0C86A7"/>
<path d="M279.09 60.6497C279.09 62.7297 278.42 64.4597 277.09 65.8297C275.76 67.2097 274.06 67.8997 271.99 67.8997C270.69 67.8997 269.49 67.6198 268.39 67.0598C267.22 66.4598 266.34 65.6197 265.75 64.5197C265.16 63.4197 264.86 62.0798 264.86 60.4998C264.86 59.2398 265.16 58.0698 265.76 56.9698C266.38 55.8298 267.24 54.9598 268.32 54.3698C269.4 53.7798 270.62 53.4897 271.97 53.4897C274.06 53.4897 275.77 54.1598 277.1 55.5098C278.42 56.8498 279.09 58.5597 279.09 60.6497ZM275.34 60.6598C275.34 59.4998 275.08 58.5298 274.55 57.7598C273.94 56.8898 273.09 56.4498 271.98 56.4498C270.86 56.4498 270 56.8897 269.4 57.7697C268.87 58.5397 268.61 59.5097 268.61 60.6797C268.61 61.8497 268.87 62.8198 269.4 63.5898C270.01 64.4698 270.87 64.9098 271.98 64.9098C273.11 64.9098 273.97 64.4598 274.56 63.5698C275.08 62.8198 275.34 61.8398 275.34 60.6598Z" fill="#0C86A7"/>
<path d="M294.78 71.22H291.83V67.58H280.83V53.79H284.48V64.64H289.69V53.79H293.34V64.64H294.78V71.22Z" fill="#0C86A7"/>
<path d="M309.92 67.5898H306.41V58.7898L300.73 67.5898H297.22V53.7998H300.73V62.4598L306.34 53.7998H309.92V67.5898V67.5898Z" fill="#0C86A7"/>
<path d="M325.65 67.59H322.04C321.94 67.33 321.82 66.97 321.69 66.51C321.62 66.28 321.58 66.13 321.56 66.08C320.31 67.29 318.89 67.9 317.29 67.9C315.98 67.9 314.9 67.55 314.06 66.86C313.16 66.12 312.71 65.1 312.71 63.82C312.71 62.18 313.42 61.02 314.84 60.33C315.52 60 316.48 59.72 317.74 59.49C319.45 59.16 320.64 58.86 321.29 58.59V58.23C321.29 57.44 321.06 56.91 320.61 56.62C320.26 56.39 319.65 56.28 318.8 56.28C317.61 56.28 316.8 56.86 316.4 58.01L313.09 57.41C313.5 55.95 314.22 54.91 315.27 54.29C316.18 53.75 317.44 53.48 319.06 53.48C321.86 53.48 323.63 54.16 324.39 55.52C324.73 56.14 324.89 57.23 324.87 58.79L324.83 63.05C324.8 64.91 325.08 66.42 325.65 67.59ZM321.28 61.69V60.96C321.12 61.01 320.38 61.19 319.06 61.49C318.02 61.73 317.36 61.95 317.07 62.15C316.59 62.48 316.36 62.91 316.36 63.44C316.36 63.99 316.56 64.44 316.96 64.79C317.36 65.14 317.83 65.32 318.39 65.32C319.06 65.32 319.68 65.1 320.27 64.67C320.7 64.35 320.99 63.95 321.14 63.46C321.23 63.15 321.28 62.56 321.28 61.69Z" fill="#0C86A7"/>
<path d="M342.28 71.22H339.33V67.58H328.33V53.79H331.98V64.64H337.19V53.79H340.84V64.64H342.28V71.22V71.22Z" fill="#0C86A7"/>
<path d="M357.42 67.5898H353.91V58.7898L348.23 67.5898H344.72V53.7998H348.23V62.4598L353.84 53.7998H357.42V67.5898Z" fill="#0C86A7"/>
<path d="M373 67.59H369.38V61.86H369.04C368.25 61.86 367.68 61.96 367.32 62.16C367.09 62.28 366.68 62.72 366.09 63.46L365.87 63.73L363.46 67.58H359.21L361.82 63.58C362.56 62.44 363.24 61.78 363.85 61.61C362.79 61.55 361.95 61.15 361.32 60.4C360.71 59.68 360.41 58.79 360.41 57.71C360.41 55.83 361.18 54.64 362.72 54.13C363.41 53.9 364.45 53.79 365.82 53.79H373V67.59V67.59ZM369.37 59.69V56.14H366.76C365.94 56.14 365.34 56.24 364.95 56.43C364.41 56.69 364.14 57.18 364.14 57.91C364.14 59.1 365.08 59.69 366.97 59.69H369.37Z" fill="#0C86A7"/>
<path d="M214.94 103.12L213.53 105.83C212.97 105.67 212.4 105.43 211.83 105.12C211.67 105.03 210.82 104.47 209.27 103.43C208.02 103.98 206.64 104.25 205.13 104.25C202.12 104.25 199.79 103.35 198.14 101.56C196.56 99.8298 195.76 97.4398 195.76 94.3998C195.76 91.3998 196.55 89.0198 198.12 87.2798C199.76 85.4598 202.06 84.5498 205.02 84.5498C207.97 84.5498 210.26 85.4598 211.88 87.2898C213.44 89.0398 214.22 91.4098 214.22 94.3898C214.22 96.0298 213.99 97.4698 213.53 98.7298C213.18 99.6898 212.63 100.61 211.87 101.5C212.8 102.18 213.83 102.72 214.94 103.12ZM210.25 94.3998C210.25 92.4998 209.86 90.9698 209.07 89.8298C208.16 88.5098 206.8 87.8398 204.99 87.8398C203.18 87.8398 201.82 88.5098 200.9 89.8398C200.11 90.9798 199.72 92.4998 199.72 94.3998C199.72 96.2698 200.1 97.7898 200.86 98.9698C201.76 100.36 203.1 101.05 204.87 101.05C205.42 101.05 205.95 100.96 206.44 100.78C205.66 100.27 204.87 99.8698 204.06 99.5898L205.14 97.3998C206.41 97.8298 207.61 98.4798 208.76 99.3498C209.75 98.1798 210.25 96.5298 210.25 94.3998Z" fill="#0C86A7"/>
<path d="M234.41 103.92H230.23L228.57 99.5899H220.96L219.39 103.92H215.3L222.72 84.8799H226.79L234.41 103.92ZM227.33 96.3999L224.71 89.3299L222.15 96.3999H227.33Z" fill="#0C86A7"/>
<path d="M250.26 103.92H234.79V100.45L244.8 88.0999H235.93V84.8799H249.86V87.8699L239.42 100.73H250.26V103.92Z" fill="#0C86A7"/>
<path d="M269.86 103.92H265.68L264.02 99.5899H256.41L254.84 103.92H250.75L258.17 84.8799H262.24L269.86 103.92ZM262.79 96.3999L260.17 89.3299L257.61 96.3999H262.79Z" fill="#0C86A7"/>
<path d="M290.29 103.12L288.88 105.83C288.32 105.67 287.75 105.43 287.18 105.12C287.02 105.03 286.17 104.47 284.62 103.43C283.37 103.98 281.99 104.25 280.48 104.25C277.47 104.25 275.14 103.35 273.49 101.56C271.91 99.8298 271.11 97.4398 271.11 94.3998C271.11 91.3998 271.9 89.0198 273.47 87.2798C275.11 85.4598 277.41 84.5498 280.37 84.5498C283.32 84.5498 285.61 85.4598 287.23 87.2898C288.79 89.0398 289.57 91.4098 289.57 94.3898C289.57 96.0298 289.34 97.4698 288.88 98.7298C288.53 99.6898 287.98 100.61 287.22 101.5C288.16 102.18 289.19 102.72 290.29 103.12ZM285.61 94.3998C285.61 92.4998 285.22 90.9698 284.43 89.8298C283.52 88.5098 282.16 87.8398 280.35 87.8398C278.54 87.8398 277.18 88.5098 276.26 89.8398C275.47 90.9798 275.08 92.4998 275.08 94.3998C275.08 96.2698 275.46 97.7898 276.22 98.9698C277.12 100.36 278.46 101.05 280.23 101.05C280.78 101.05 281.31 100.96 281.8 100.78C281.02 100.27 280.23 99.8698 279.42 99.5898L280.5 97.3998C281.77 97.8298 282.97 98.4798 284.12 99.3498C285.11 98.1798 285.61 96.5298 285.61 94.3998Z" fill="#0C86A7"/>
<path d="M317.13 101.3C316.2 102.2 314.94 102.93 313.32 103.48C311.82 103.99 310.38 104.25 308.98 104.25C307.08 104.25 305.4 103.87 303.95 103.11C302.38 102.27 301.21 101.04 300.43 99.4096C299.69 97.8596 299.31 96.1696 299.31 94.3496C299.31 92.4096 299.7 90.6896 300.48 89.1896C301.33 87.5896 302.57 86.3596 304.21 85.5096C305.44 84.8796 306.96 84.5596 308.77 84.5596C313.36 84.5596 316.06 86.4296 316.88 90.1596L313.06 90.8696C312.48 88.8496 311.05 87.8396 308.77 87.8396C306.92 87.8396 305.52 88.4496 304.56 89.6696C303.7 90.7696 303.27 92.2696 303.27 94.1796C303.27 96.1396 303.68 97.7196 304.49 98.8896C305.44 100.27 306.85 100.95 308.72 100.95C310.33 100.95 311.83 100.41 313.23 99.3296V96.9096H308.83V93.7196H317.12V101.3H317.13Z" fill="#0C86A7"/>
<path d="M337.79 103.92H333.19L330.41 99.7796C329.58 98.5396 329.12 97.8697 329.05 97.7697C328.39 96.9097 327.79 96.3796 327.23 96.1896C326.82 96.0496 326.18 95.9796 325.29 95.9796H324.51V103.93H320.67V84.8896H328.76C330.44 84.8896 331.67 84.9896 332.46 85.1896C333.78 85.5196 334.76 86.1996 335.41 87.2296C335.96 88.1096 336.24 89.1096 336.24 90.2296C336.24 93.2796 334.56 95.0396 331.21 95.5296C332.16 96.0796 332.97 96.7596 333.65 97.5696C334.05 98.0596 334.65 98.9396 335.46 100.22L337.79 103.92ZM332.29 90.4597C332.29 89.1297 331.64 88.3696 330.33 88.1596C330.05 88.1196 329.12 88.0996 327.53 88.0996H324.53V92.9297H327.37C328.78 92.9297 329.59 92.9196 329.8 92.8896C330.83 92.7796 331.53 92.4396 331.9 91.8896C332.15 91.5096 332.29 91.0397 332.29 90.4597Z" fill="#0C86A7"/>
<path d="M354.35 103.92H339.87V84.8799H353.99V88.0999H343.71V92.3199H353.27V95.5199H343.71V100.73H354.35V103.92Z" fill="#0C86A7"/>
<path d="M372.09 103.92H357.61V84.8799H371.73V88.0999H361.46V92.3199H371.02V95.5199H361.46V100.73H372.09V103.92Z" fill="#0C86A7"/>
<path d="M390.51 103.92H386.65L378.98 91.4999V103.92H375.41V84.8799H379.16L386.94 97.5899V84.8799H390.51V103.92Z" fill="#0C86A7"/>
</svg>
