<svg width="600" height="320" viewBox="0 0 600 320" fill="none" xmlns="http://www.w3.org/2000/svg">
<rect width="600" height="319.818" fill="white"/>
<path d="M175.886 244.305L114.957 248.31L136.483 261.143L96.2869 268.469L159.526 268.264L138.998 253.777L175.886 244.305Z" fill="#FFCE00"/>
<path d="M154.032 66.6424C154.77 63.0615 156.943 59.918 159.157 57.5125C162 54.4374 164.884 52.5649 164.884 52.5649C164.884 52.5649 166.852 55.4761 168.246 59.4943C169.312 62.5558 170.036 66.2597 169.312 69.7859C168.492 73.8041 166.988 77.3166 165.212 79.8315C163.161 82.7426 160.715 84.328 158.46 83.8633C156.874 83.5353 155.617 82.2506 154.742 80.3098C153.28 77.0843 152.911 72.041 154.032 66.6424Z" fill="#FFCE00"/>
<path d="M189.772 83.3439C191.863 80.3507 195.102 78.3142 198.082 76.9748C201.909 75.2664 205.298 74.6924 205.298 74.6924C205.298 74.6924 205.954 78.1366 205.64 82.3871C205.408 85.6263 204.615 89.3029 202.551 92.2687C200.2 95.6309 197.44 98.2687 194.815 99.8815C191.781 101.74 188.911 102.232 187.011 100.92C185.686 99.9908 185.03 98.3097 184.989 96.1913C184.948 92.6377 186.615 87.8678 189.772 83.3439Z" fill="#FFCE00"/>
<path d="M216.273 105.717C219.335 103.722 223.093 103.038 226.36 102.915C230.542 102.751 233.918 103.489 233.918 103.489C233.918 103.489 233.234 106.934 231.376 110.76C229.954 113.672 227.849 116.801 224.815 118.77C221.385 121.011 217.845 122.432 214.797 122.952C211.284 123.54 208.442 122.938 207.171 120.997C206.282 119.644 206.31 117.84 207.061 115.858C208.346 112.537 211.667 108.738 216.273 105.717Z" fill="#FFCE00"/>
<path d="M231.526 135.622C234.984 134.446 238.797 134.747 241.995 135.444C246.082 136.333 249.157 137.891 249.157 137.891C249.157 137.891 247.626 141.061 244.865 144.287C242.761 146.747 239.931 149.248 236.515 150.396C232.633 151.708 228.847 152.187 225.772 151.927C222.218 151.626 219.608 150.314 218.87 148.128C218.351 146.597 218.829 144.861 220.059 143.125C222.123 140.228 226.305 137.385 231.526 135.622Z" fill="#FFCE00"/>
<path d="M236.665 169.093C240.314 169.312 243.731 171.021 246.437 172.879C249.895 175.244 252.15 177.854 252.15 177.854C252.15 177.854 249.553 180.205 245.767 182.16C242.884 183.649 239.33 184.893 235.722 184.674C231.635 184.428 227.945 183.444 225.184 182.05C222.013 180.424 220.086 178.237 220.237 175.927C220.332 174.314 221.426 172.879 223.23 171.745C226.223 169.832 231.157 168.765 236.665 169.093Z" fill="#FFCE00"/>
<path d="M228.082 200.337C231.512 201.594 234.314 204.205 236.364 206.747C239.002 210 240.423 213.143 240.423 213.143C240.423 213.143 237.253 214.66 233.07 215.453C229.886 216.054 226.114 216.232 222.724 215.002C218.87 213.594 215.617 211.612 213.389 209.48C210.82 207.02 209.59 204.369 210.382 202.209C210.943 200.692 212.392 199.626 214.442 199.052C217.859 198.068 222.902 198.451 228.082 200.337Z" fill="#FFCE00"/>
<path d="M212.788 229.244C214.988 232.155 215.904 235.872 216.246 239.139C216.683 243.307 216.164 246.711 216.164 246.711C216.164 246.711 212.679 246.26 208.756 244.647C205.763 243.417 202.496 241.517 200.337 238.633C197.877 235.353 196.223 231.922 195.512 228.916C194.692 225.444 195.116 222.56 196.961 221.18C198.246 220.209 200.064 220.114 202.086 220.742C205.449 221.768 209.467 224.829 212.788 229.244Z" fill="#FFCE00"/>
<path d="M127.681 64.9065C127.025 61.3119 124.92 58.1138 122.761 55.6536C120 52.4964 117.143 50.5693 117.143 50.5693C117.143 50.5693 115.107 53.4395 113.631 57.4167C112.496 60.4509 111.676 64.1411 112.332 67.681C113.057 71.7128 114.478 75.2664 116.2 77.8222C118.182 80.7743 120.587 82.4281 122.856 82.0181C124.442 81.7311 125.74 80.4737 126.656 78.5602C128.187 75.362 128.665 70.3324 127.681 64.9065Z" fill="#FFCE00"/>
<path d="M91.066 76.5377C89.3029 73.3395 86.2824 70.975 83.4532 69.335C79.8314 67.2302 76.5102 66.3008 76.5102 66.3008C76.5102 66.3008 75.4988 69.663 75.3621 73.9135C75.2528 77.1527 75.6628 80.8976 77.3986 84.0684C79.3803 87.663 81.8405 90.5741 84.3006 92.4466C87.1298 94.6197 89.9316 95.4124 91.9544 94.2917C93.3758 93.5126 94.1958 91.9135 94.4555 89.7951C94.8792 86.2825 93.7311 81.3759 91.066 76.5377Z" fill="#FFCE00"/>
<path d="M62.3642 96.0137C59.5351 93.7039 55.8586 92.6379 52.6194 92.1732C48.4781 91.5718 45.0476 91.9545 45.0476 91.9545C45.0476 91.9545 45.362 95.4534 46.8244 99.4442C47.9314 102.492 49.7082 105.813 52.51 108.096C55.6809 110.693 59.0567 112.469 62.0362 113.303C65.4668 114.26 68.3642 113.945 69.8267 112.169C70.8517 110.911 71.0157 109.121 70.469 107.057C69.5396 103.64 66.6285 99.4989 62.3642 96.0137Z" fill="#FFCE00"/>
<path d="M44.0635 124.155C40.7424 122.638 36.9155 122.528 33.6626 122.884C29.4941 123.348 26.2822 124.565 26.2822 124.565C26.2822 124.565 27.4713 127.872 29.8768 131.371C31.7219 134.036 34.264 136.825 37.5442 138.328C41.2754 140.036 44.9793 140.925 48.0681 140.979C51.6353 141.048 54.3551 140.023 55.3255 137.918C55.9952 136.456 55.7082 134.665 54.6695 132.82C52.9337 129.731 49.0795 126.465 44.0635 124.155Z" fill="#FFCE00"/>
<path d="M35.4532 156.915C31.804 156.751 28.2231 158.091 25.3393 159.649C21.6491 161.644 19.1343 163.995 19.1343 163.995C19.1343 163.995 21.4851 166.619 25.0249 168.943C27.7311 170.72 31.1479 172.332 34.7561 172.496C38.8564 172.674 42.6286 172.086 45.4987 170.979C48.8199 169.695 50.9657 167.713 51.0614 165.417C51.1297 163.804 50.2003 162.259 48.5329 160.934C45.7721 158.733 40.9748 157.162 35.4532 156.915Z" fill="#FFCE00"/>
<path d="M40.7287 188.897C37.1888 189.786 34.1274 192.096 31.8176 194.405C28.8517 197.371 27.116 200.337 27.116 200.337C27.116 200.337 30.1091 202.182 34.182 203.398C37.2845 204.328 41.0157 204.902 44.5146 204.027C48.4918 203.029 51.936 201.389 54.3825 199.503C57.198 197.33 58.6877 194.815 58.1274 192.588C57.731 191.016 56.3916 189.813 54.4235 189.02C51.1296 187.695 46.0863 187.558 40.7287 188.897Z" fill="#FFCE00"/>
<path d="M60.8882 223.462C58.4007 226.141 57.1023 229.735 56.419 232.934C55.5442 237.034 55.7082 240.478 55.7082 240.478C55.7082 240.478 59.2208 240.382 63.2937 239.193C66.3962 238.278 69.8404 236.733 72.3005 234.082C75.0887 231.075 77.0841 227.822 78.1092 224.911C79.2846 221.549 79.1615 218.637 77.4804 217.066C76.305 215.959 74.5146 215.672 72.4235 216.095C68.9656 216.792 64.6467 219.417 60.8882 223.462Z" fill="#FFCE00"/>
<path d="M104.378 205.777C119.768 217.954 141.485 215.877 157.585 207.731C157.995 207.499 158.405 207.266 158.802 207.02C179.221 194.72 186.492 171.212 181.367 148.127C181.148 147.43 180.916 146.733 180.67 146.05C178.948 141.239 176.501 136.496 173.317 132.109C171.499 129.608 169.449 127.189 167.153 124.961C164.856 122.733 162.342 120.67 159.608 118.824C154.169 115.134 147.895 112.36 141.198 110.911C134.501 109.449 127.408 109.38 120.519 110.774C117.13 111.444 113.795 112.647 110.679 114.219C107.563 115.79 104.679 117.84 102.123 120.191C99.5945 122.597 97.3804 125.316 95.6036 128.296C93.8269 131.262 92.5421 134.501 91.6537 137.808C90.8337 141.13 90.41 144.547 90.533 147.922L90.574 149.193L90.6834 150.451L90.738 151.08L90.82 151.708L90.984 152.966C91.2847 154.619 91.6264 156.273 92.1184 157.872C93.0205 160.988 94.4829 163.968 96.3143 166.619C97.2437 167.945 98.2414 169.216 99.3348 170.392C100.428 171.567 101.604 172.66 102.847 173.685C107.822 177.717 113.918 180.26 120.082 180.902C121.626 181.052 123.157 181.107 124.688 181.052C126.219 180.984 127.736 180.806 129.225 180.547L130.387 180.301C130.497 180.273 130.579 180.26 130.661 180.232L130.893 180.164L131.371 180.041C132.027 179.849 132.738 179.617 133.394 179.357C134.733 178.838 135.991 178.196 137.18 177.458C139.558 175.968 141.581 174.027 143.18 171.813C144.779 169.599 145.872 167.098 146.487 164.515C146.802 163.23 146.979 161.904 147.034 160.592C147.089 159.28 147.007 157.954 146.815 156.656C146.774 156.328 146.72 156 146.651 155.685L146.569 155.207L146.542 155.084C146.651 155.508 146.556 155.111 146.569 155.18L146.487 154.893L146.173 153.731L146.023 153.157L145.859 152.788C145.64 152.296 145.531 151.818 145.203 151.244L144.793 150.41C144.656 150.123 144.465 149.877 144.314 149.617C143.016 147.512 141.307 145.667 139.312 144.232C137.33 142.783 135.075 141.745 132.765 141.143C130.456 140.528 128.064 140.392 125.768 140.679L125.549 140.692C125.604 140.679 125.262 140.733 125.645 140.665L125.508 140.692L124.989 140.788C124.647 140.856 124.292 140.925 123.95 140.993C123.69 141.061 123.513 141.13 123.28 141.198L122.952 141.294L122.788 141.335L122.61 141.417C122.132 141.635 121.613 141.772 121.162 142.045L120.465 142.401L119.822 142.824C119.371 143.084 119.002 143.453 118.592 143.754C118.374 143.904 118.223 144.109 118.032 144.273C117.854 144.465 117.649 144.629 117.485 144.82C116.829 145.599 116.2 146.392 115.763 147.294C114.834 149.057 114.287 151.011 114.273 152.979C114.273 153.225 114.287 153.471 114.287 153.717C114.301 153.963 114.287 154.209 114.328 154.455C114.355 154.701 114.383 154.947 114.424 155.18L114.465 155.549C114.506 155.74 114.41 155.398 114.437 155.48L114.465 155.59L114.519 155.808C114.588 156.109 114.656 156.396 114.724 156.697C114.752 156.875 114.793 156.916 114.82 157.025L114.916 157.298C114.998 157.64 115.216 158.077 115.394 158.501C116.173 160.155 117.403 161.562 118.811 162.67C120.219 163.79 121.872 164.501 123.526 164.897L124.141 165.048C124.346 165.075 124.565 165.102 124.77 165.13C124.975 165.157 125.194 165.198 125.399 165.212C125.604 165.225 125.822 165.225 126.027 165.239C126.437 165.28 126.847 165.239 127.257 165.212L127.558 165.198H127.64C127.777 165.171 127.544 165.225 127.613 165.212L127.79 165.184C128.036 165.143 128.269 165.102 128.515 165.061L128.692 165.034C128.747 165.02 128.774 165.007 128.815 165.007L129.048 164.938C129.212 164.897 129.362 164.87 129.526 164.815C129.868 164.679 130.237 164.583 130.551 164.405C130.715 164.323 130.879 164.241 131.043 164.159C131.194 164.064 131.344 163.968 131.508 163.872C131.822 163.695 132.082 163.449 132.369 163.244C133.449 162.342 134.269 161.193 134.788 159.991C135.308 158.774 135.513 157.49 135.458 156.273C135.444 155.972 135.403 155.672 135.376 155.371L135.362 155.262C135.362 155.275 135.335 155.152 135.376 155.275L135.362 155.207L135.308 154.961C135.267 154.797 135.239 154.633 135.198 154.469C135.116 154.196 135.048 153.977 134.979 153.731C134.87 153.485 134.774 153.225 134.665 152.979C134.2 152.023 133.572 151.203 132.888 150.56C132.191 149.918 131.467 149.453 130.77 149.084C129.362 148.387 128.118 148.196 127.285 148.155C126.861 148.114 126.547 148.141 126.342 148.141C126.123 148.141 126.014 148.155 126.014 148.155L125.863 147.253C125.863 147.253 125.986 147.225 126.219 147.184C126.451 147.143 126.793 147.048 127.257 147.02C128.187 146.925 129.636 146.911 131.412 147.485C132.301 147.772 133.257 148.223 134.214 148.893C135.171 149.562 136.114 150.478 136.907 151.654C137.098 151.954 137.276 152.269 137.467 152.597C137.631 152.938 137.822 153.335 137.959 153.69C138.014 153.854 138.068 154.004 138.123 154.168L138.205 154.414L138.232 154.483L138.273 154.619L138.301 154.756C138.383 155.139 138.478 155.535 138.547 155.931C138.806 157.531 138.765 159.348 138.232 161.152C137.713 162.957 136.756 164.788 135.267 166.305C134.884 166.66 134.515 167.07 134.064 167.385C133.845 167.549 133.64 167.713 133.408 167.89C133.175 168.041 132.943 168.178 132.711 168.328C132.246 168.642 131.727 168.861 131.221 169.121C130.961 169.244 130.647 169.339 130.36 169.449L129.909 169.613L129.69 169.681L129.513 169.736C129.28 169.804 129.048 169.859 128.815 169.927L128.638 169.982C128.638 169.982 128.351 170.036 128.419 170.023L128.31 170.036L127.886 170.105C127.326 170.2 126.738 170.31 126.15 170.323C125.85 170.337 125.563 170.364 125.262 170.378C124.961 170.392 124.674 170.364 124.36 170.364C124.059 170.351 123.759 170.337 123.458 170.323C123.157 170.282 122.856 170.255 122.556 170.214C122.255 170.173 121.941 170.146 121.64 170.077C121.339 170.009 121.039 169.941 120.724 169.859C120.109 169.736 119.522 169.503 118.907 169.298C118.305 169.093 117.731 168.793 117.13 168.547C116.569 168.232 115.968 167.931 115.421 167.562C113.194 166.127 111.13 164.146 109.654 161.644C109.298 161.002 108.929 160.401 108.629 159.608L108.396 159.034C108.328 158.856 108.232 158.624 108.191 158.501C108.096 158.214 108 157.927 107.918 157.64L107.85 157.421L107.809 157.312C107.809 157.312 107.713 156.902 107.74 157.011L107.631 156.478C107.563 156.109 107.494 155.754 107.412 155.385C107.33 155.029 107.303 154.647 107.262 154.278C107.221 153.909 107.194 153.526 107.153 153.157C106.961 150.123 107.549 146.938 108.875 143.986C109.517 142.496 110.419 141.102 111.417 139.777C111.677 139.449 111.964 139.148 112.237 138.834C112.524 138.533 112.784 138.191 113.098 137.918C113.713 137.357 114.328 136.742 115.025 136.264C115.367 136.018 115.708 135.758 116.064 135.499C116.433 135.28 116.802 135.061 117.171 134.829C117.895 134.364 118.702 134.036 119.481 133.654L119.781 133.517L120.109 133.394L120.779 133.162C121.216 133.011 121.708 132.847 122.118 132.724C122.46 132.642 122.802 132.56 123.157 132.465L123.677 132.342L123.813 132.314C124.278 132.232 124.032 132.273 124.182 132.246L124.497 132.205C127.831 131.617 131.358 131.685 134.788 132.424C138.232 133.148 141.581 134.569 144.601 136.619C147.608 138.656 150.328 141.321 152.378 144.519C152.624 144.929 152.911 145.312 153.13 145.736L153.8 147.007C154.251 147.813 154.633 148.852 155.016 149.822L155.303 150.574L155.467 151.148L155.795 152.296L155.877 152.583C155.918 152.733 155.85 152.433 155.973 152.966L156.014 153.143L156.15 153.84C156.26 154.305 156.342 154.77 156.396 155.248C156.984 159.007 156.861 162.97 155.945 166.797C155.043 170.624 153.321 174.301 150.957 177.526C148.592 180.765 145.531 183.499 142.059 185.576C140.323 186.615 138.478 187.476 136.565 188.146C135.608 188.487 134.665 188.761 133.64 189.02L132.847 189.212L132.451 189.307C132.314 189.335 132.178 189.362 132.082 189.389L130.688 189.635C129.718 189.772 128.733 189.881 127.763 189.963C126.779 190.045 125.795 190.086 124.811 190.1C122.802 190.059 120.738 190.059 118.907 189.69C118.128 189.581 117.349 189.444 116.569 189.294C109.599 187.872 102.97 184.619 97.5854 179.877C94.5786 177.253 91.9954 174.137 89.9043 170.72C87.8679 167.262 86.3371 163.517 85.4624 159.567C83.7813 151.886 84.2733 143.74 86.8428 136.401C88.1549 132.738 89.8906 129.253 92.1184 126.123C94.2779 122.952 96.9157 120.15 99.8269 117.704C101.289 116.501 102.793 115.353 104.405 114.355C105.185 113.822 106.018 113.385 106.825 112.906C107.235 112.674 107.658 112.469 108.068 112.25C108.478 112.032 108.902 111.813 109.326 111.635C112.715 110.036 116.269 108.861 119.932 108.137C127.162 106.729 134.583 106.66 141.731 107.808C148.893 108.957 155.795 111.335 162.068 114.738C168.342 118.141 173.973 122.638 178.551 127.913C182.569 132.533 185.768 137.767 187.982 143.289C188.296 144.082 188.597 144.875 188.884 145.667C197.262 172.483 185.877 203.508 161.084 216.588C160.633 216.834 160.169 217.08 159.704 217.312C159.239 217.544 158.774 217.777 158.31 217.995C139.353 227.303 117.636 221.098 104.296 206.228C104.364 205.831 104.378 205.777 104.378 205.777Z" fill="#FFD000"/>
<path d="M317.33 192.123L315.403 195.827C314.638 195.608 313.859 195.28 313.08 194.857C312.861 194.734 311.699 193.968 309.581 192.547C307.872 193.298 305.986 193.667 303.923 193.667C299.809 193.667 296.624 192.437 294.369 189.991C292.21 187.626 291.116 184.36 291.116 180.205C291.116 176.105 292.196 172.852 294.342 170.474C296.583 167.986 299.727 166.743 303.772 166.743C307.804 166.743 310.934 167.986 313.148 170.488C315.28 172.879 316.346 176.119 316.346 180.191C316.346 182.433 316.032 184.401 315.403 186.123C314.925 187.435 314.173 188.693 313.134 189.909C314.406 190.838 315.813 191.576 317.33 192.123ZM310.92 180.205C310.92 177.608 310.387 175.517 309.308 173.959C308.064 172.155 306.205 171.239 303.731 171.239C301.257 171.239 299.399 172.155 298.141 173.973C297.062 175.531 296.529 177.608 296.529 180.205C296.529 182.761 297.048 184.838 298.087 186.451C299.317 188.351 301.148 189.294 303.567 189.294C304.319 189.294 305.043 189.171 305.713 188.925C304.647 188.228 303.567 187.681 302.46 187.298L303.936 184.305C305.672 184.893 307.312 185.781 308.884 186.97C310.237 185.371 310.92 183.116 310.92 180.205Z" fill="#0C86A7"/>
<path d="M343.941 193.217H338.228L335.959 187.299H325.558L323.412 193.217H317.822L327.964 167.194H333.526L343.941 193.217ZM334.264 182.939L330.683 173.276L327.184 182.939H334.264Z" fill="#0C86A7"/>
<path d="M365.604 193.217H344.46V188.474L358.141 171.595H346.018V167.194H365.057V171.28L350.788 188.857H365.604V193.217Z" fill="#0C86A7"/>
<path d="M392.392 193.217H386.679L384.41 187.299H374.009L371.863 193.217H366.273L376.415 167.194H381.977L392.392 193.217ZM382.729 182.939L379.148 173.276L375.649 182.939H382.729Z" fill="#0C86A7"/>
<path d="M420.314 192.123L418.387 195.827C417.622 195.608 416.843 195.28 416.064 194.857C415.845 194.734 414.683 193.968 412.565 192.547C410.857 193.298 408.971 193.667 406.907 193.667C402.793 193.667 399.608 192.437 397.353 189.991C395.194 187.626 394.1 184.36 394.1 180.205C394.1 176.105 395.18 172.852 397.326 170.474C399.567 167.986 402.711 166.743 406.756 166.743C410.788 166.743 413.918 167.986 416.132 170.488C418.264 172.879 419.33 176.119 419.33 180.191C419.33 182.433 419.016 184.401 418.387 186.123C417.909 187.435 417.157 188.693 416.119 189.909C417.403 190.838 418.811 191.576 420.314 192.123ZM413.918 180.205C413.918 177.608 413.385 175.517 412.305 173.959C411.062 172.155 409.203 171.239 406.729 171.239C404.255 171.239 402.396 172.155 401.139 173.973C400.059 175.531 399.526 177.608 399.526 180.205C399.526 182.761 400.046 184.838 401.084 186.451C402.314 188.351 404.146 189.294 406.565 189.294C407.317 189.294 408.041 189.171 408.711 188.925C407.645 188.228 406.565 187.681 405.458 187.298L406.934 184.305C408.67 184.893 410.31 185.781 411.882 186.97C413.235 185.371 413.918 183.116 413.918 180.205Z" fill="#0C86A7"/>
<path d="M456.998 189.636C455.727 190.866 454.005 191.863 451.791 192.615C449.741 193.312 447.772 193.668 445.859 193.668C443.262 193.668 440.966 193.148 438.984 192.109C436.838 190.961 435.239 189.28 434.173 187.052C433.162 184.934 432.643 182.624 432.643 180.137C432.643 177.485 433.176 175.134 434.242 173.084C435.403 170.898 437.098 169.217 439.34 168.055C441.021 167.194 443.098 166.756 445.572 166.756C451.845 166.756 455.535 169.312 456.656 174.41L451.435 175.381C450.643 172.62 448.688 171.239 445.572 171.239C443.043 171.239 441.13 172.073 439.818 173.74C438.643 175.244 438.055 177.294 438.055 179.904C438.055 182.583 438.615 184.743 439.722 186.342C441.021 188.228 442.948 189.157 445.504 189.157C447.704 189.157 449.754 188.419 451.668 186.943V183.636H445.654V179.276H456.984V189.636H456.998Z" fill="#0C86A7"/>
<path d="M485.235 193.217H478.948L475.148 187.558C474.014 185.864 473.385 184.948 473.289 184.811C472.387 183.636 471.567 182.911 470.802 182.652C470.241 182.46 469.367 182.365 468.15 182.365H467.084V193.23H461.836V167.208H472.893C475.189 167.208 476.87 167.344 477.95 167.618C479.754 168.069 481.093 168.998 481.982 170.406C482.734 171.608 483.116 172.975 483.116 174.506C483.116 178.674 480.82 181.08 476.241 181.75C477.54 182.501 478.647 183.431 479.576 184.538C480.123 185.208 480.943 186.41 482.05 188.16L485.235 193.217ZM477.718 174.82C477.718 173.003 476.829 171.964 475.039 171.677C474.656 171.622 473.385 171.595 471.212 171.595H467.112V178.196H470.993C472.92 178.196 474.027 178.182 474.314 178.141C475.722 177.991 476.679 177.526 477.185 176.775C477.526 176.255 477.718 175.613 477.718 174.82Z" fill="#0C86A7"/>
<path d="M507.868 193.217H488.077V167.194H507.376V171.595H493.326V177.362H506.392V181.736H493.326V188.857H507.868V193.217Z" fill="#0C86A7"/>
<path d="M532.114 193.217H512.323V167.194H531.622V171.595H517.585V177.362H530.652V181.736H517.585V188.857H532.114V193.217Z" fill="#0C86A7"/>
<path d="M557.289 193.217H552.014L541.531 176.242V193.217H536.652V167.194H541.777L552.41 184.565V167.194H557.289V193.217Z" fill="#0C86A7"/>
<path d="M294.314 145.681H288.519L286.223 139.695H275.699L273.526 145.681H267.882L278.146 119.331H283.777L294.314 145.681ZM284.529 135.28L280.907 125.495L277.367 135.28H284.529Z" fill="#0C86A7"/>
<path d="M313.982 139.216C312.943 143.822 309.991 146.119 305.139 146.119C302.201 146.119 299.918 145.175 298.292 143.303C296.747 141.526 295.968 139.148 295.968 136.169C295.968 133.148 296.747 130.756 298.305 128.98C299.945 127.107 302.255 126.178 305.221 126.178C309.704 126.178 312.533 128.201 313.722 132.246L308.747 133.148C308.406 131.153 307.258 130.141 305.303 130.141C302.542 130.141 301.176 132.027 301.176 135.8C301.176 139.927 302.583 142.005 305.385 142.005C307.367 142.005 308.583 140.788 309.034 138.369L313.982 139.216Z" fill="#0C86A7"/>
<path d="M334.442 139.216C333.403 143.822 330.451 146.119 325.599 146.119C322.661 146.119 320.378 145.175 318.752 143.303C317.207 141.526 316.428 139.148 316.428 136.169C316.428 133.148 317.207 130.756 318.765 128.98C320.405 127.107 322.715 126.178 325.681 126.178C330.164 126.178 332.993 128.201 334.182 132.246L329.207 133.148C328.866 131.153 327.718 130.141 325.763 130.141C323.002 130.141 321.636 132.027 321.636 135.8C321.636 139.927 323.043 142.005 325.845 142.005C327.827 142.005 329.043 140.788 329.494 138.369L334.442 139.216Z" fill="#0C86A7"/>
<path d="M355.531 136.087C355.531 138.957 354.615 141.349 352.77 143.262C350.925 145.162 348.574 146.119 345.704 146.119C343.913 146.119 342.246 145.736 340.729 144.957C339.116 144.137 337.886 142.961 337.066 141.444C336.246 139.927 335.836 138.068 335.836 135.882C335.836 134.146 336.246 132.519 337.08 130.989C337.941 129.403 339.116 128.214 340.62 127.394C342.123 126.574 343.804 126.178 345.663 126.178C348.547 126.178 350.911 127.107 352.756 128.966C354.601 130.825 355.531 133.203 355.531 136.087ZM350.337 136.114C350.337 134.515 349.968 133.175 349.244 132.109C348.41 130.893 347.221 130.292 345.69 130.292C344.146 130.292 342.957 130.907 342.109 132.123C341.385 133.189 341.016 134.529 341.016 136.155C341.016 137.768 341.385 139.121 342.109 140.187C342.943 141.403 344.146 142.018 345.69 142.018C347.248 142.018 348.437 141.403 349.271 140.173C349.982 139.08 350.337 137.74 350.337 136.114Z" fill="#0C86A7"/>
<path d="M377.235 150.725H373.148V145.695H357.923V126.602H362.966V141.608H370.196V126.602H375.253V141.608H377.248V150.725H377.235Z" fill="#0C86A7"/>
<path d="M398.187 145.681H393.335V133.504L385.476 145.681H380.624V126.602H385.476V138.588L393.239 126.602H398.2V145.681H398.187Z" fill="#0C86A7"/>
<path d="M419.959 145.681H414.957C414.806 145.326 414.656 144.82 414.465 144.191C414.369 143.863 414.314 143.672 414.287 143.604C412.565 145.285 410.583 146.119 408.369 146.119C406.565 146.119 405.062 145.64 403.9 144.683C402.656 143.658 402.027 142.251 402.027 140.474C402.027 138.205 403.011 136.592 404.98 135.636C405.909 135.185 407.248 134.788 408.984 134.474C411.362 134.023 412.989 133.599 413.891 133.23V132.724C413.891 131.631 413.576 130.893 412.961 130.497C412.469 130.182 411.636 130.032 410.46 130.032C408.806 130.032 407.699 130.825 407.139 132.424L402.56 131.604C403.121 129.581 404.132 128.146 405.581 127.285C406.838 126.547 408.588 126.164 410.829 126.164C414.697 126.164 417.157 127.107 418.196 128.98C418.661 129.841 418.879 131.358 418.866 133.503L418.811 139.394C418.784 141.977 419.166 144.068 419.959 145.681ZM413.904 137.522V136.51C413.672 136.579 412.647 136.825 410.829 137.248C409.394 137.59 408.478 137.891 408.082 138.164C407.426 138.615 407.098 139.216 407.098 139.941C407.098 140.693 407.371 141.321 407.932 141.813C408.478 142.305 409.134 142.551 409.913 142.551C410.829 142.551 411.704 142.251 412.524 141.649C413.125 141.212 413.522 140.652 413.727 139.982C413.836 139.545 413.904 138.724 413.904 137.522Z" fill="#0C86A7"/>
<path d="M442.961 150.725H438.875V145.695H423.649V126.602H428.692V141.608H435.895V126.602H440.952V141.608H442.948V150.725H442.961Z" fill="#0C86A7"/>
<path d="M463.913 145.681H459.062V133.504L451.203 145.681H446.351V126.602H451.203V138.588L458.966 126.602H463.927V145.681H463.913Z" fill="#0C86A7"/>
<path d="M485.467 145.681H480.451V137.754H479.986C478.893 137.754 478.1 137.891 477.594 138.164C477.28 138.328 476.72 138.93 475.886 139.968L475.585 140.351L472.251 145.681H466.374L469.982 140.146C471.007 138.561 471.95 137.659 472.784 137.413C471.321 137.331 470.159 136.77 469.285 135.745C468.451 134.747 468.027 133.517 468.027 132.028C468.027 129.431 469.093 127.777 471.226 127.066C472.182 126.752 473.617 126.602 475.517 126.602H485.453V145.681H485.467ZM480.451 134.761V129.854H476.843C475.708 129.854 474.875 129.991 474.342 130.251C473.604 130.606 473.221 131.289 473.221 132.301C473.221 133.941 474.533 134.761 477.143 134.761H480.451V134.761Z" fill="#0C86A7"/>
<path d="M522.916 138.055C522.916 139.271 522.642 140.433 522.082 141.567C521.522 142.702 520.77 143.59 519.799 144.274C518.829 144.957 517.64 145.367 516.232 145.517C515.139 145.627 513.007 145.681 509.822 145.681H500.856V119.331H511.394C513.225 119.331 514.496 119.372 515.221 119.454C516.683 119.631 517.886 120.041 518.815 120.684C520.701 121.968 521.631 123.732 521.631 125.973C521.631 127.217 521.303 128.351 520.633 129.376C519.963 130.401 519.061 131.167 517.927 131.686C519.471 132.137 520.688 132.916 521.563 133.982C522.451 135.13 522.916 136.483 522.916 138.055ZM516.437 126.725C516.437 125.003 515.549 124.032 513.758 123.813C513.253 123.759 511.736 123.718 509.207 123.718H506.146V129.814H509.631C511.708 129.814 512.993 129.786 513.499 129.718C515.467 129.499 516.437 128.501 516.437 126.725ZM517.408 137.809C517.408 136.169 516.67 135.103 515.18 134.583C514.455 134.337 512.87 134.201 510.451 134.201H506.159V141.267H511.08C512.952 141.267 514.168 141.212 514.729 141.103C516.519 140.761 517.408 139.654 517.408 137.809Z" fill="#0C86A7"/>
<path d="M548.433 145.681H543.458V128.488L532.797 145.681H527.481V119.331H532.456V136.88L543.144 119.331H548.433V145.681Z" fill="#0C86A7"/>
<path d="M575.781 132.656C575.781 138.178 573.909 142.128 570.15 144.478C568.401 145.586 566.296 146.132 563.822 146.132C557.822 146.132 554.118 143.317 552.738 137.672L558.082 136.018C558.328 137.727 558.943 139.08 559.913 140.064C560.952 141.103 562.319 141.622 564.014 141.622C567.485 141.622 569.535 139.34 570.164 134.761H561.895V130.346H570.164C569.945 128.365 569.33 126.765 568.292 125.549C567.144 124.182 565.613 123.499 563.727 123.499C560.843 123.499 558.957 124.948 558.082 127.832L552.82 126.629C553.408 124.073 554.706 122.132 556.702 120.793C558.574 119.535 560.857 118.907 563.563 118.907C567.485 118.907 570.533 120.246 572.734 122.939C574.77 125.399 575.781 128.638 575.781 132.656Z" fill="#0C86A7"/>
</svg>
