<svg width="600" height="320" viewBox="0 0 600 320" fill="none" xmlns="http://www.w3.org/2000/svg">
<rect width="600" height="319.818" fill="white"/>
<path d="M175.886 244.305L114.957 248.31L136.483 261.143L96.2869 268.469L159.526 268.264L138.998 253.777L175.886 244.305Z" fill="#FFCE00"/>
<path d="M154.032 66.6424C154.77 63.0615 156.943 59.918 159.157 57.5125C162 54.4374 164.884 52.5649 164.884 52.5649C164.884 52.5649 166.852 55.4761 168.246 59.4943C169.312 62.5558 170.036 66.2597 169.312 69.7859C168.492 73.8041 166.988 77.3166 165.212 79.8315C163.161 82.7426 160.715 84.328 158.46 83.8633C156.874 83.5353 155.617 82.2506 154.742 80.3098C153.28 77.0843 152.911 72.041 154.032 66.6424Z" fill="#FFCE00"/>
<path d="M189.772 83.3439C191.863 80.3507 195.102 78.3142 198.082 76.9748C201.909 75.2664 205.298 74.6924 205.298 74.6924C205.298 74.6924 205.954 78.1366 205.64 82.3871C205.408 85.6263 204.615 89.3029 202.551 92.2687C200.2 95.6309 197.44 98.2687 194.815 99.8814C191.781 101.74 188.911 102.232 187.011 100.92C185.686 99.9908 185.03 98.3097 184.989 96.1912C184.948 92.6377 186.615 87.8678 189.772 83.3439Z" fill="#FFCE00"/>
<path d="M216.273 105.717C219.335 103.722 223.093 103.038 226.36 102.915C230.542 102.751 233.918 103.489 233.918 103.489C233.918 103.489 233.234 106.934 231.376 110.76C229.954 113.672 227.849 116.801 224.815 118.77C221.385 121.011 217.845 122.432 214.797 122.952C211.284 123.54 208.442 122.938 207.171 120.997C206.282 119.644 206.31 117.84 207.061 115.858C208.346 112.537 211.667 108.738 216.273 105.717Z" fill="#FFCE00"/>
<path d="M231.526 135.622C234.984 134.446 238.797 134.747 241.995 135.444C246.082 136.333 249.157 137.891 249.157 137.891C249.157 137.891 247.626 141.061 244.865 144.287C242.761 146.747 239.931 149.248 236.515 150.396C232.633 151.708 228.847 152.187 225.772 151.927C222.218 151.626 219.608 150.314 218.87 148.128C218.351 146.597 218.829 144.861 220.059 143.125C222.123 140.228 226.305 137.385 231.526 135.622Z" fill="#FFCE00"/>
<path d="M236.665 169.093C240.314 169.312 243.731 171.021 246.437 172.879C249.895 175.244 252.15 177.854 252.15 177.854C252.15 177.854 249.553 180.205 245.767 182.16C242.884 183.649 239.33 184.893 235.722 184.674C231.635 184.428 227.945 183.444 225.184 182.05C222.013 180.424 220.086 178.237 220.237 175.927C220.332 174.314 221.426 172.879 223.23 171.745C226.223 169.832 231.157 168.765 236.665 169.093Z" fill="#FFCE00"/>
<path d="M228.082 200.337C231.512 201.594 234.314 204.205 236.364 206.747C239.002 210 240.423 213.143 240.423 213.143C240.423 213.143 237.253 214.66 233.07 215.453C229.886 216.054 226.114 216.232 222.724 215.002C218.87 213.594 215.617 211.612 213.389 209.48C210.82 207.02 209.59 204.369 210.382 202.209C210.943 200.692 212.392 199.626 214.442 199.052C217.859 198.068 222.902 198.451 228.082 200.337Z" fill="#FFCE00"/>
<path d="M212.788 229.244C214.988 232.155 215.904 235.872 216.246 239.139C216.683 243.307 216.164 246.711 216.164 246.711C216.164 246.711 212.679 246.26 208.756 244.647C205.763 243.417 202.496 241.517 200.337 238.633C197.877 235.353 196.223 231.922 195.512 228.916C194.692 225.444 195.116 222.56 196.961 221.18C198.246 220.209 200.064 220.114 202.086 220.742C205.449 221.768 209.467 224.829 212.788 229.244Z" fill="#FFCE00"/>
<path d="M127.681 64.9065C127.025 61.3119 124.92 58.1138 122.761 55.6536C120 52.4964 117.143 50.5693 117.143 50.5693C117.143 50.5693 115.107 53.4395 113.631 57.4167C112.496 60.4509 111.676 64.1411 112.332 67.681C113.057 71.7128 114.478 75.2664 116.2 77.8222C118.182 80.7743 120.587 82.4281 122.856 82.0181C124.442 81.7311 125.74 80.4737 126.656 78.5602C128.187 75.362 128.665 70.3324 127.681 64.9065Z" fill="#FFCE00"/>
<path d="M91.066 76.5377C89.3029 73.3395 86.2824 70.975 83.4532 69.335C79.8314 67.2302 76.5102 66.3008 76.5102 66.3008C76.5102 66.3008 75.4988 69.663 75.3621 73.9135C75.2528 77.1527 75.6628 80.8976 77.3986 84.0684C79.3803 87.663 81.8405 90.5741 84.3006 92.4466C87.1298 94.6197 89.9316 95.4124 91.9544 94.2917C93.3758 93.5126 94.1958 91.9135 94.4555 89.7951C94.8792 86.2826 93.7311 81.376 91.066 76.5377Z" fill="#FFCE00"/>
<path d="M62.3642 96.0137C59.5351 93.7039 55.8586 92.6379 52.6194 92.1732C48.4781 91.5718 45.0476 91.9545 45.0476 91.9545C45.0476 91.9545 45.362 95.4534 46.8244 99.4442C47.9314 102.492 49.7082 105.813 52.51 108.096C55.6809 110.693 59.0567 112.469 62.0362 113.303C65.4668 114.26 68.3642 113.945 69.8267 112.169C70.8517 110.911 71.0157 109.121 70.469 107.057C69.5396 103.64 66.6285 99.4989 62.3642 96.0137Z" fill="#FFCE00"/>
<path d="M44.0635 124.155C40.7424 122.638 36.9155 122.528 33.6626 122.884C29.4941 123.348 26.2822 124.565 26.2822 124.565C26.2822 124.565 27.4713 127.872 29.8768 131.371C31.7219 134.036 34.264 136.825 37.5442 138.328C41.2754 140.036 44.9793 140.925 48.0681 140.979C51.6353 141.048 54.3551 140.023 55.3255 137.918C55.9952 136.456 55.7082 134.665 54.6695 132.82C52.9337 129.731 49.0795 126.465 44.0635 124.155Z" fill="#FFCE00"/>
<path d="M35.4532 156.915C31.804 156.751 28.2231 158.091 25.3393 159.649C21.6491 161.644 19.1343 163.995 19.1343 163.995C19.1343 163.995 21.4851 166.619 25.0249 168.943C27.7311 170.72 31.1479 172.332 34.7561 172.496C38.8564 172.674 42.6286 172.086 45.4987 170.979C48.8199 169.695 50.9657 167.713 51.0614 165.417C51.1297 163.804 50.2003 162.259 48.5329 160.934C45.7721 158.733 40.9748 157.162 35.4532 156.915Z" fill="#FFCE00"/>
<path d="M40.7287 188.897C37.1888 189.786 34.1274 192.096 31.8176 194.405C28.8517 197.371 27.116 200.337 27.116 200.337C27.116 200.337 30.1091 202.182 34.182 203.398C37.2845 204.328 41.0157 204.902 44.5146 204.027C48.4918 203.029 51.936 201.389 54.3825 199.503C57.198 197.33 58.6877 194.815 58.1274 192.588C57.731 191.016 56.3916 189.813 54.4235 189.02C51.1296 187.695 46.0863 187.558 40.7287 188.897Z" fill="#FFCE00"/>
<path d="M60.8882 223.462C58.4007 226.141 57.1023 229.735 56.419 232.934C55.5442 237.034 55.7082 240.478 55.7082 240.478C55.7082 240.478 59.2208 240.382 63.2937 239.193C66.3962 238.278 69.8404 236.733 72.3005 234.082C75.0887 231.075 77.0841 227.822 78.1092 224.911C79.2846 221.549 79.1615 218.637 77.4804 217.066C76.305 215.959 74.5146 215.672 72.4235 216.095C68.9656 216.792 64.6467 219.417 60.8882 223.462Z" fill="#FFCE00"/>
<path d="M104.378 205.777C119.768 217.954 141.485 215.877 157.585 207.731C157.995 207.499 158.405 207.266 158.802 207.02C179.221 194.72 186.492 171.212 181.367 148.127C181.148 147.43 180.916 146.733 180.67 146.05C178.948 141.239 176.501 136.496 173.317 132.109C171.499 129.608 169.449 127.189 167.153 124.961C164.856 122.733 162.342 120.67 159.608 118.824C154.169 115.134 147.895 112.36 141.198 110.911C134.501 109.449 127.408 109.38 120.519 110.774C117.13 111.444 113.795 112.647 110.679 114.219C107.563 115.79 104.679 117.84 102.123 120.191C99.5945 122.597 97.3804 125.316 95.6036 128.296C93.8269 131.262 92.5421 134.501 91.6537 137.808C90.8337 141.13 90.41 144.547 90.533 147.922L90.574 149.193L90.6834 150.451L90.738 151.08L90.82 151.708L90.984 152.966C91.2847 154.619 91.6264 156.273 92.1184 157.872C93.0205 160.988 94.4829 163.968 96.3143 166.619C97.2437 167.945 98.2414 169.216 99.3348 170.392C100.428 171.567 101.604 172.66 102.847 173.685C107.822 177.717 113.918 180.26 120.082 180.902C121.626 181.052 123.157 181.107 124.688 181.052C126.219 180.984 127.736 180.806 129.225 180.547L130.387 180.301C130.497 180.273 130.579 180.26 130.661 180.232L130.893 180.164L131.371 180.041C132.027 179.849 132.738 179.617 133.394 179.357C134.733 178.838 135.991 178.196 137.18 177.458C139.558 175.968 141.581 174.027 143.18 171.813C144.779 169.599 145.872 167.098 146.487 164.515C146.802 163.23 146.979 161.904 147.034 160.592C147.089 159.28 147.007 157.954 146.815 156.656C146.774 156.328 146.72 156 146.651 155.685L146.569 155.207L146.542 155.084C146.651 155.508 146.556 155.111 146.569 155.18L146.487 154.893L146.173 153.731L146.023 153.157L145.859 152.788C145.64 152.296 145.531 151.818 145.203 151.244L144.793 150.41C144.656 150.123 144.465 149.877 144.314 149.617C143.016 147.512 141.307 145.667 139.312 144.232C137.33 142.783 135.075 141.745 132.765 141.143C130.456 140.528 128.064 140.392 125.768 140.679L125.549 140.692C125.604 140.679 125.262 140.733 125.645 140.665L125.508 140.692L124.989 140.788C124.647 140.856 124.292 140.925 123.95 140.993C123.69 141.061 123.513 141.13 123.28 141.198L122.952 141.294L122.788 141.335L122.61 141.417C122.132 141.635 121.613 141.772 121.162 142.045L120.465 142.401L119.822 142.824C119.371 143.084 119.002 143.453 118.592 143.754C118.374 143.904 118.223 144.109 118.032 144.273C117.854 144.465 117.649 144.629 117.485 144.82C116.829 145.599 116.2 146.392 115.763 147.294C114.834 149.057 114.287 151.011 114.273 152.979C114.273 153.225 114.287 153.471 114.287 153.717C114.301 153.963 114.287 154.209 114.328 154.455C114.355 154.701 114.383 154.947 114.424 155.18L114.465 155.549C114.506 155.74 114.41 155.398 114.437 155.48L114.465 155.59L114.519 155.808C114.588 156.109 114.656 156.396 114.724 156.697C114.752 156.875 114.793 156.916 114.82 157.025L114.916 157.298C114.998 157.64 115.216 158.077 115.394 158.501C116.173 160.155 117.403 161.562 118.811 162.67C120.219 163.79 121.872 164.501 123.526 164.897L124.141 165.048C124.346 165.075 124.565 165.102 124.77 165.13C124.975 165.157 125.194 165.198 125.399 165.212C125.604 165.225 125.822 165.225 126.027 165.239C126.437 165.28 126.847 165.239 127.257 165.212L127.558 165.198H127.64C127.777 165.171 127.544 165.225 127.613 165.212L127.79 165.184C128.036 165.143 128.269 165.102 128.515 165.061L128.692 165.034C128.747 165.02 128.774 165.007 128.815 165.007L129.048 164.938C129.212 164.897 129.362 164.87 129.526 164.815C129.868 164.679 130.237 164.583 130.551 164.405C130.715 164.323 130.879 164.241 131.043 164.159C131.194 164.064 131.344 163.968 131.508 163.872C131.822 163.695 132.082 163.449 132.369 163.244C133.449 162.342 134.269 161.193 134.788 159.991C135.308 158.774 135.513 157.49 135.458 156.273C135.444 155.972 135.403 155.672 135.376 155.371L135.362 155.262C135.362 155.275 135.335 155.152 135.376 155.275L135.362 155.207L135.308 154.961C135.267 154.797 135.239 154.633 135.198 154.469C135.116 154.196 135.048 153.977 134.979 153.731C134.87 153.485 134.774 153.225 134.665 152.979C134.2 152.023 133.572 151.203 132.888 150.56C132.191 149.918 131.467 149.453 130.77 149.084C129.362 148.387 128.118 148.196 127.285 148.155C126.861 148.114 126.547 148.141 126.342 148.141C126.123 148.141 126.014 148.155 126.014 148.155L125.863 147.253C125.863 147.253 125.986 147.225 126.219 147.184C126.451 147.143 126.793 147.048 127.257 147.02C128.187 146.925 129.636 146.911 131.412 147.485C132.301 147.772 133.257 148.223 134.214 148.893C135.171 149.562 136.114 150.478 136.907 151.654C137.098 151.954 137.276 152.269 137.467 152.597C137.631 152.938 137.822 153.335 137.959 153.69C138.014 153.854 138.068 154.004 138.123 154.168L138.205 154.414L138.232 154.483L138.273 154.619L138.301 154.756C138.383 155.139 138.478 155.535 138.547 155.931C138.806 157.531 138.765 159.348 138.232 161.152C137.713 162.957 136.756 164.788 135.267 166.305C134.884 166.66 134.515 167.07 134.064 167.385C133.845 167.549 133.64 167.713 133.408 167.89C133.175 168.041 132.943 168.178 132.711 168.328C132.246 168.642 131.727 168.861 131.221 169.121C130.961 169.244 130.647 169.339 130.36 169.449L129.909 169.613L129.69 169.681L129.513 169.736C129.28 169.804 129.048 169.859 128.815 169.927L128.638 169.982C128.638 169.982 128.351 170.036 128.419 170.023L128.31 170.036L127.886 170.105C127.326 170.2 126.738 170.31 126.15 170.323C125.85 170.337 125.563 170.364 125.262 170.378C124.961 170.392 124.674 170.364 124.36 170.364C124.059 170.351 123.759 170.337 123.458 170.323C123.157 170.282 122.856 170.255 122.556 170.214C122.255 170.173 121.941 170.146 121.64 170.077C121.339 170.009 121.039 169.941 120.724 169.859C120.109 169.736 119.522 169.503 118.907 169.298C118.305 169.093 117.731 168.793 117.13 168.547C116.569 168.232 115.968 167.931 115.421 167.562C113.194 166.127 111.13 164.146 109.654 161.644C109.298 161.002 108.929 160.401 108.629 159.608L108.396 159.034C108.328 158.856 108.232 158.624 108.191 158.501C108.096 158.214 108 157.927 107.918 157.64L107.85 157.421L107.809 157.312C107.809 157.312 107.713 156.902 107.74 157.011L107.631 156.478C107.563 156.109 107.494 155.754 107.412 155.385C107.33 155.029 107.303 154.647 107.262 154.278C107.221 153.909 107.194 153.526 107.153 153.157C106.961 150.123 107.549 146.938 108.875 143.986C109.517 142.496 110.419 141.102 111.417 139.777C111.677 139.449 111.964 139.148 112.237 138.834C112.524 138.533 112.784 138.191 113.098 137.918C113.713 137.357 114.328 136.742 115.025 136.264C115.367 136.018 115.708 135.758 116.064 135.499C116.433 135.28 116.802 135.061 117.171 134.829C117.895 134.364 118.702 134.036 119.481 133.654L119.781 133.517L120.109 133.394L120.779 133.162C121.216 133.011 121.708 132.847 122.118 132.724C122.46 132.642 122.802 132.56 123.157 132.465L123.677 132.342L123.813 132.314C124.278 132.232 124.032 132.273 124.182 132.246L124.497 132.205C127.831 131.617 131.358 131.685 134.788 132.424C138.232 133.148 141.581 134.569 144.601 136.619C147.608 138.656 150.328 141.321 152.378 144.519C152.624 144.929 152.911 145.312 153.13 145.736L153.8 147.007C154.251 147.813 154.633 148.852 155.016 149.822L155.303 150.574L155.467 151.148L155.795 152.296L155.877 152.583C155.918 152.733 155.85 152.433 155.973 152.966L156.014 153.143L156.15 153.84C156.26 154.305 156.342 154.77 156.396 155.248C156.984 159.007 156.861 162.97 155.945 166.797C155.043 170.624 153.321 174.301 150.957 177.526C148.592 180.765 145.531 183.499 142.059 185.576C140.323 186.615 138.478 187.476 136.565 188.146C135.608 188.487 134.665 188.761 133.64 189.02L132.847 189.212L132.451 189.307C132.314 189.335 132.178 189.362 132.082 189.389L130.688 189.635C129.718 189.772 128.733 189.881 127.763 189.963C126.779 190.045 125.795 190.086 124.811 190.1C122.802 190.059 120.738 190.059 118.907 189.69C118.128 189.581 117.349 189.444 116.569 189.294C109.599 187.872 102.97 184.619 97.5854 179.877C94.5786 177.253 91.9954 174.137 89.9043 170.72C87.8679 167.262 86.3371 163.517 85.4624 159.567C83.7813 151.886 84.2733 143.74 86.8428 136.401C88.1549 132.738 89.8906 129.253 92.1184 126.123C94.2779 122.952 96.9157 120.15 99.8269 117.704C101.289 116.501 102.793 115.353 104.405 114.355C105.185 113.822 106.018 113.385 106.825 112.906C107.235 112.674 107.658 112.469 108.068 112.25C108.478 112.032 108.902 111.813 109.326 111.635C112.715 110.036 116.269 108.861 119.932 108.137C127.162 106.729 134.583 106.66 141.731 107.808C148.893 108.957 155.795 111.335 162.068 114.738C168.342 118.141 173.973 122.638 178.551 127.913C182.569 132.533 185.768 137.767 187.982 143.289C188.296 144.082 188.597 144.875 188.884 145.667C197.262 172.483 185.877 203.508 161.084 216.588C160.633 216.834 160.169 217.08 159.704 217.312C159.239 217.544 158.774 217.777 158.31 217.995C139.353 227.303 117.636 221.098 104.296 206.228C104.364 205.831 104.378 205.777 104.378 205.777Z" fill="#FFD000"/>
<path d="M318.697 144.287L316.77 147.991C316.005 147.772 315.225 147.444 314.446 147.021C314.228 146.898 313.066 146.132 310.948 144.711C309.239 145.463 307.353 145.832 305.289 145.832C301.175 145.832 297.991 144.602 295.736 142.155C293.576 139.791 292.483 136.524 292.483 132.369C292.483 128.269 293.563 125.016 295.708 122.638C297.95 120.15 301.093 118.907 305.139 118.907C309.171 118.907 312.301 120.151 314.515 122.652C316.647 125.043 317.713 128.283 317.713 132.356C317.713 134.597 317.399 136.565 316.77 138.287C316.292 139.599 315.54 140.857 314.501 142.073C315.772 143.016 317.18 143.74 318.697 144.287ZM312.287 132.383C312.287 129.786 311.754 127.695 310.674 126.137C309.431 124.333 307.572 123.417 305.098 123.417C302.624 123.417 300.765 124.333 299.508 126.15C298.428 127.709 297.895 129.786 297.895 132.383C297.895 134.939 298.415 137.016 299.453 138.629C300.683 140.529 302.515 141.472 304.934 141.472C305.686 141.472 306.41 141.349 307.08 141.103C306.014 140.406 304.934 139.859 303.827 139.476L305.303 136.483C307.039 137.071 308.679 137.959 310.251 139.148C311.617 137.535 312.287 135.294 312.287 132.383Z" fill="#0C86A7"/>
<path d="M345.307 145.394H339.594L337.325 139.476H326.924L324.779 145.394H319.189L329.33 119.371H334.893L345.307 145.394ZM335.631 135.116L332.05 125.453L328.551 135.116H335.631Z" fill="#0C86A7"/>
<path d="M366.984 145.394H345.84V140.651L359.508 123.772H347.385V119.371H366.423V123.458L352.155 141.02H366.984V145.394Z" fill="#0C86A7"/>
<path d="M393.772 145.394H388.059L385.791 139.476H375.39L373.244 145.394H367.654L377.795 119.371H383.358L393.772 145.394ZM384.096 135.116L380.515 125.453L377.016 135.116H384.096Z" fill="#0C86A7"/>
<path d="M421.695 144.287L419.767 147.991C419.002 147.772 418.223 147.444 417.444 147.021C417.225 146.898 416.064 146.132 413.945 144.711C412.237 145.463 410.351 145.832 408.287 145.832C404.173 145.832 400.988 144.602 398.733 142.155C396.574 139.791 395.48 136.524 395.48 132.369C395.48 128.269 396.56 125.016 398.72 122.638C400.961 120.15 404.091 118.907 408.15 118.907C412.182 118.907 415.312 120.151 417.526 122.652C419.658 125.043 420.724 128.283 420.724 132.356C420.724 134.597 420.41 136.565 419.781 138.287C419.303 139.599 418.551 140.857 417.512 142.073C418.77 143.016 420.177 143.74 421.695 144.287ZM415.285 132.383C415.285 129.786 414.752 127.695 413.672 126.137C412.428 124.333 410.569 123.417 408.095 123.417C405.622 123.417 403.763 124.333 402.506 126.15C401.426 127.709 400.893 129.786 400.893 132.383C400.893 134.939 401.412 137.016 402.451 138.629C403.681 140.529 405.512 141.472 407.931 141.472C408.683 141.472 409.408 141.349 410.077 141.103C409.011 140.406 407.931 139.859 406.824 139.476L408.301 136.483C410.036 137.071 411.676 137.959 413.248 139.148C414.601 137.535 415.285 135.294 415.285 132.383Z" fill="#0C86A7"/>
<path d="M458.364 141.813C457.093 143.043 455.371 144.041 453.157 144.792C451.107 145.489 449.139 145.845 447.225 145.845C444.628 145.845 442.332 145.325 440.35 144.287C438.205 143.139 436.606 141.458 435.54 139.23C434.528 137.111 434.009 134.801 434.009 132.3C434.009 129.649 434.542 127.298 435.608 125.248C436.77 123.061 438.464 121.38 440.706 120.218C442.387 119.357 444.464 118.92 446.938 118.92C453.212 118.92 456.902 121.476 458.022 126.574L452.801 127.544C452.009 124.783 450.054 123.403 446.938 123.403C444.41 123.403 442.496 124.237 441.184 125.904C440.009 127.407 439.421 129.457 439.421 132.068C439.421 134.76 439.981 136.906 441.089 138.505C442.387 140.391 444.314 141.334 446.87 141.334C449.07 141.334 451.12 140.596 453.034 139.12V135.813H447.02V131.453H458.35V141.813H458.364Z" fill="#0C86A7"/>
<path d="M486.601 145.394H480.314L476.515 139.736C475.38 138.041 474.752 137.126 474.656 136.989C473.754 135.814 472.934 135.089 472.168 134.829C471.608 134.638 470.733 134.542 469.517 134.542H468.451V145.408H463.203V119.385H474.26C476.556 119.385 478.237 119.522 479.317 119.795C481.121 120.246 482.46 121.176 483.348 122.583C484.1 123.786 484.483 125.153 484.483 126.684C484.483 130.852 482.187 133.258 477.608 133.927C478.907 134.679 480.014 135.608 480.943 136.716C481.49 137.385 482.31 138.588 483.417 140.337L486.601 145.394ZM479.084 126.998C479.084 125.18 478.196 124.142 476.405 123.855C476.023 123.8 474.752 123.773 472.578 123.773H468.478V130.374H472.36C474.287 130.374 475.394 130.36 475.681 130.319C477.089 130.169 478.045 129.704 478.551 128.952C478.907 128.433 479.084 127.777 479.084 126.998Z" fill="#0C86A7"/>
<path d="M509.248 145.394H489.444V119.371H508.742V123.772H494.706V129.54H507.772V133.9H494.706V141.02H509.248V145.394Z" fill="#0C86A7"/>
<path d="M533.494 145.394H513.704V119.371H532.988V123.772H518.952V129.54H532.018V133.9H518.952V141.02H533.494V145.394Z" fill="#0C86A7"/>
<path d="M558.656 145.394H553.394L542.897 128.419V145.394H538.018V119.371H543.143L553.777 136.742V119.371H558.656V145.394Z" fill="#0C86A7"/>
<path d="M307.695 199.995H303.321V194.31H301.34L298.237 187.585C298.059 187.257 297.745 186.656 297.28 185.809C296.679 184.674 296.228 183.964 295.927 183.677C295.408 183.185 294.642 182.925 293.631 182.911V194.31H288.383V168.287H293.631V179.358C294.957 179.221 295.927 178.688 296.542 177.745C296.679 177.54 297.13 176.433 297.923 174.41C298.92 171.854 299.904 170.187 300.902 169.408C302.009 168.56 303.854 168.123 306.478 168.123C306.601 168.123 306.848 168.123 307.244 168.109V171.991H306.492C305.399 171.964 304.579 172.128 304.005 172.469C303.431 172.811 302.939 173.467 302.501 174.437C302.365 174.738 302.064 175.572 301.558 176.952C301.176 178.018 300.82 178.784 300.478 179.262C300.041 179.891 299.399 180.437 298.538 180.916C299.768 181.257 300.875 182.105 301.859 183.458C302.351 184.114 303.048 185.358 303.95 187.189L305.33 189.95H307.668V199.995H307.695Z" fill="#0C86A7"/>
<path d="M327.649 194.323H322.715C322.579 193.968 322.415 193.476 322.237 192.847C322.141 192.533 322.087 192.328 322.059 192.26C320.351 193.913 318.41 194.747 316.223 194.747C314.433 194.747 312.957 194.269 311.809 193.326C310.579 192.314 309.964 190.92 309.964 189.171C309.964 186.929 310.934 185.344 312.875 184.401C313.804 183.95 315.116 183.567 316.838 183.253C319.175 182.802 320.802 182.392 321.69 182.023V181.531C321.69 180.451 321.376 179.727 320.761 179.33C320.269 179.016 319.449 178.865 318.287 178.865C316.661 178.865 315.554 179.658 315.007 181.23L310.483 180.41C311.043 178.414 312.027 176.993 313.462 176.146C314.706 175.408 316.428 175.039 318.642 175.039C322.469 175.039 324.888 175.968 325.927 177.827C326.392 178.674 326.611 180.164 326.583 182.296L326.529 188.118C326.488 190.66 326.87 192.724 327.649 194.323ZM321.677 186.26V185.262C321.458 185.33 320.447 185.576 318.642 185.986C317.221 186.314 316.319 186.615 315.923 186.888C315.267 187.339 314.952 187.927 314.952 188.651C314.952 189.403 315.226 190.018 315.772 190.496C316.319 190.975 316.961 191.221 317.727 191.221C318.642 191.221 319.49 190.92 320.296 190.332C320.884 189.895 321.28 189.348 321.485 188.679C321.608 188.255 321.677 187.449 321.677 186.26Z" fill="#0C86A7"/>
<path d="M348.533 175.462L340.688 196.893C340.333 197.877 339.923 198.711 339.444 199.408C338.665 200.528 337.572 201.28 336.178 201.663C335.426 201.868 334.565 201.964 333.622 201.964C332.665 201.964 331.722 201.868 330.793 201.663L330.356 197.754C331.135 197.904 331.845 197.986 332.474 197.986C334.374 197.986 335.645 196.784 336.328 194.364L329.153 175.462H334.456L338.966 188.843L343.367 175.462H348.533Z" fill="#0C86A7"/>
<path d="M369.936 188.829C369.936 192.492 367.422 194.31 362.406 194.31H351.731V175.462H356.72V183.294H361.736C363.54 183.294 364.825 183.376 365.618 183.554C367.012 183.868 368.091 184.524 368.87 185.522C369.581 186.465 369.936 187.572 369.936 188.829ZM364.811 188.747C364.811 187.654 364.223 186.943 363.048 186.615C362.474 186.451 361.449 186.369 359.959 186.369H356.734V191.166H361.367C363.663 191.153 364.811 190.36 364.811 188.747ZM377.768 194.323H372.779V175.476H377.768V194.323Z" fill="#0C86A7"/>
<path d="M404.638 194.323H400.401V181.913L395.809 194.323H391.545L387.157 181.913V194.323H382.893V175.476H389.071L393.759 188.638L398.488 175.476H404.638V194.323Z" fill="#0C86A7"/>
<path d="M429.321 199.285H425.262V194.31H410.993V199.285H406.948V190.237H408.984C410.255 188.829 411.116 186.465 411.595 183.13C411.854 181.367 412.018 178.811 412.087 175.462H427.299V190.237H429.321V199.285ZM422.351 179.563H416.324C416.119 184.77 415.299 188.323 413.85 190.237H422.351V179.563Z" fill="#0C86A7"/>
<path d="M449.112 194.323H444.178C444.041 193.968 443.877 193.476 443.699 192.847C443.604 192.533 443.549 192.328 443.522 192.26C441.813 193.913 439.873 194.747 437.686 194.747C435.895 194.747 434.419 194.269 433.271 193.326C432.041 192.314 431.426 190.92 431.426 189.171C431.426 186.929 432.397 185.344 434.337 184.401C435.267 183.95 436.579 183.567 438.301 183.253C440.638 182.802 442.264 182.392 443.153 182.023V181.531C443.153 180.451 442.838 179.727 442.223 179.33C441.731 179.016 440.911 178.865 439.75 178.865C438.123 178.865 437.016 179.658 436.469 181.23L431.945 180.41C432.506 178.414 433.49 176.993 434.925 176.146C436.169 175.408 437.891 175.039 440.105 175.039C443.932 175.039 446.351 175.968 447.39 177.827C447.854 178.674 448.073 180.164 448.046 182.296L447.991 188.118C447.95 190.66 448.333 192.724 449.112 194.323ZM443.125 186.26V185.262C442.907 185.33 441.895 185.576 440.091 185.986C438.67 186.314 437.768 186.615 437.371 186.888C436.715 187.339 436.401 187.927 436.401 188.651C436.401 189.403 436.674 190.018 437.221 190.496C437.768 190.975 438.41 191.221 439.176 191.221C440.091 191.221 440.939 190.92 441.745 190.332C442.333 189.895 442.729 189.348 442.934 188.679C443.057 188.255 443.125 187.449 443.125 186.26Z" fill="#0C86A7"/>
<path d="M469.627 187.927C468.601 192.465 465.69 194.747 460.893 194.747C457.996 194.747 455.74 193.818 454.128 191.959C452.597 190.209 451.832 187.859 451.832 184.906C451.832 181.927 452.597 179.563 454.141 177.799C455.768 175.954 458.037 175.025 460.975 175.025C465.403 175.025 468.205 177.02 469.367 181.025L464.447 181.913C464.119 179.932 462.984 178.947 461.043 178.947C458.324 178.947 456.957 180.806 456.957 184.537C456.957 188.624 458.337 190.66 461.112 190.66C463.066 190.66 464.269 189.471 464.72 187.08L469.627 187.927Z" fill="#0C86A7"/>
<path d="M487.982 179.494H481.941V194.323H476.952V179.494H470.911V175.462H487.968V179.494H487.982Z" fill="#0C86A7"/>
<path d="M509.194 188.829C509.194 192.492 506.679 194.31 501.663 194.31H490.989V175.462H495.977V183.294H500.98C502.784 183.294 504.068 183.376 504.861 183.554C506.255 183.868 507.335 184.524 508.114 185.522C508.838 186.465 509.194 187.572 509.194 188.829ZM504.069 188.747C504.069 187.654 503.481 186.943 502.305 186.615C501.731 186.451 500.706 186.369 499.217 186.369H495.991V191.166H500.624C502.92 191.153 504.069 190.36 504.069 188.747ZM517.025 194.323H512.037V175.476H517.025V194.323Z" fill="#0C86A7"/>
<path d="M534.547 179.494H526.811V184.497H532.565V187.818H526.811V194.31H521.822V187.818H519.977V184.497H521.822V175.462H534.547V179.494Z" fill="#0C86A7"/>
<path d="M555.39 188.829C555.39 192.492 552.875 194.31 547.859 194.31H537.185V175.462H542.173V183.294H547.175C548.98 183.294 550.264 183.376 551.057 183.554C552.451 183.868 553.531 184.524 554.31 185.522C555.034 186.465 555.39 187.572 555.39 188.829ZM550.251 188.747C550.251 187.654 549.663 186.943 548.488 186.615C547.914 186.451 546.888 186.369 545.399 186.369H542.173V191.166H546.806C549.103 191.153 550.251 190.36 550.251 188.747ZM563.221 194.323H558.232V175.476H563.221V194.323Z" fill="#0C86A7"/>
</svg>
