<svg width="600" height="320" viewBox="0 0 600 320" fill="none" xmlns="http://www.w3.org/2000/svg">
<rect width="600" height="319.818" fill="white"/>
<path d="M175.886 244.305L114.957 248.31L136.483 261.143L96.287 268.469L159.526 268.264L138.998 253.777L175.886 244.305Z" fill="#FFCE00"/>
<path d="M154.032 66.6424C154.77 63.0615 156.943 59.918 159.157 57.5125C162 54.4374 164.884 52.5649 164.884 52.5649C164.884 52.5649 166.852 55.4761 168.246 59.4943C169.312 62.5558 170.036 66.2597 169.312 69.7859C168.492 73.8041 166.989 77.3166 165.212 79.8315C163.162 82.7426 160.715 84.328 158.46 83.8633C156.875 83.5353 155.617 82.2506 154.743 80.3098C153.28 77.0843 152.911 72.041 154.032 66.6424Z" fill="#FFCE00"/>
<path d="M189.772 83.3439C191.863 80.3507 195.102 78.3142 198.082 76.9748C201.909 75.2664 205.298 74.6924 205.298 74.6924C205.298 74.6924 205.954 78.1366 205.64 82.3871C205.408 85.6263 204.615 89.3029 202.551 92.2687C200.2 95.6309 197.44 98.2687 194.815 99.8814C191.781 101.74 188.911 102.232 187.011 100.92C185.686 99.9908 185.03 98.3097 184.989 96.1912C184.948 92.6377 186.615 87.8678 189.772 83.3439Z" fill="#FFCE00"/>
<path d="M216.273 105.717C219.335 103.722 223.093 103.038 226.36 102.915C230.542 102.751 233.918 103.489 233.918 103.489C233.918 103.489 233.235 106.934 231.376 110.76C229.954 113.672 227.85 116.801 224.815 118.77C221.385 121.011 217.845 122.432 214.797 122.952C211.285 123.54 208.442 122.938 207.171 120.997C206.282 119.644 206.31 117.84 207.061 115.858C208.346 112.537 211.667 108.738 216.273 105.717Z" fill="#FFCE00"/>
<path d="M231.526 135.622C234.984 134.446 238.797 134.747 241.995 135.444C246.082 136.333 249.157 137.891 249.157 137.891C249.157 137.891 247.626 141.061 244.866 144.287C242.761 146.747 239.932 149.248 236.515 150.396C232.633 151.708 228.847 152.187 225.772 151.927C222.219 151.626 219.608 150.314 218.87 148.128C218.351 146.597 218.829 144.861 220.059 143.125C222.123 140.228 226.305 137.385 231.526 135.622Z" fill="#FFCE00"/>
<path d="M236.665 169.093C240.314 169.312 243.731 171.021 246.437 172.879C249.895 175.244 252.15 177.854 252.15 177.854C252.15 177.854 249.553 180.205 245.768 182.16C242.884 183.649 239.33 184.893 235.722 184.674C231.635 184.428 227.945 183.444 225.184 182.05C222.014 180.424 220.086 178.237 220.237 175.927C220.333 174.314 221.426 172.879 223.23 171.745C226.223 169.832 231.157 168.765 236.665 169.093Z" fill="#FFCE00"/>
<path d="M228.082 200.337C231.513 201.594 234.314 204.205 236.364 206.747C239.002 210 240.424 213.143 240.424 213.143C240.424 213.143 237.253 214.66 233.071 215.453C229.886 216.054 226.114 216.232 222.724 215.002C218.87 213.594 215.617 211.612 213.39 209.48C210.82 207.02 209.59 204.369 210.383 202.209C210.943 200.692 212.392 199.626 214.442 199.052C217.859 198.068 222.902 198.451 228.082 200.337Z" fill="#FFCE00"/>
<path d="M212.788 229.244C214.989 232.155 215.904 235.872 216.246 239.139C216.683 243.307 216.164 246.711 216.164 246.711C216.164 246.711 212.679 246.26 208.756 244.647C205.763 243.417 202.497 241.517 200.337 238.633C197.877 235.353 196.223 231.922 195.513 228.916C194.692 225.444 195.116 222.56 196.961 221.18C198.246 220.209 200.064 220.114 202.087 220.742C205.449 221.768 209.467 224.829 212.788 229.244Z" fill="#FFCE00"/>
<path d="M127.681 64.9065C127.025 61.3119 124.92 58.1138 122.761 55.6536C120 52.4964 117.144 50.5693 117.144 50.5693C117.144 50.5693 115.107 53.4395 113.631 57.4167C112.497 60.4509 111.677 64.1411 112.333 67.681C113.057 71.7128 114.478 75.2664 116.2 77.8222C118.182 80.7743 120.588 82.4281 122.857 82.0181C124.442 81.7311 125.74 80.4737 126.656 78.5602C128.187 75.362 128.665 70.3324 127.681 64.9065Z" fill="#FFCE00"/>
<path d="M91.066 76.5377C89.3029 73.3395 86.2824 70.975 83.4532 69.335C79.8314 67.2302 76.5102 66.3008 76.5102 66.3008C76.5102 66.3008 75.4988 69.663 75.3621 73.9135C75.2528 77.1527 75.6628 80.8976 77.3986 84.0684C79.3803 87.663 81.8405 90.5741 84.3006 92.4466C87.1298 94.6197 89.9316 95.4124 91.9544 94.2917C93.3758 93.5126 94.1958 91.9135 94.4555 89.7951C94.8792 86.2826 93.7311 81.376 91.066 76.5377Z" fill="#FFCE00"/>
<path d="M62.3645 96.0137C59.5353 93.7039 55.8588 92.6379 52.6196 92.1732C48.4784 91.5718 45.0479 91.9545 45.0479 91.9545C45.0479 91.9545 45.3622 95.4534 46.8246 99.4442C47.9317 102.492 49.7085 105.813 52.5103 108.096C55.6811 110.693 59.057 112.469 62.0365 113.303C65.467 114.26 68.3645 113.945 69.8269 112.169C70.852 110.911 71.016 109.121 70.4693 107.057C69.5399 103.64 66.6287 99.4989 62.3645 96.0137Z" fill="#FFCE00"/>
<path d="M44.0638 124.155C40.7426 122.638 36.9157 122.528 33.6629 122.884C29.4943 123.348 26.2825 124.565 26.2825 124.565C26.2825 124.565 27.4715 127.872 29.877 131.371C31.7221 134.036 34.2643 136.825 37.5444 138.328C41.2756 140.036 44.9795 140.925 48.0684 140.979C51.6356 141.048 54.3554 140.023 55.3258 137.918C55.9955 136.456 55.7085 134.665 54.6697 132.82C52.934 129.731 49.0797 126.465 44.0638 124.155Z" fill="#FFCE00"/>
<path d="M35.4533 156.915C31.8041 156.751 28.2232 158.091 25.3394 159.649C21.6492 161.644 19.1344 163.995 19.1344 163.995C19.1344 163.995 21.4852 166.619 25.0251 168.943C27.7312 170.72 31.1481 172.332 34.7563 172.496C38.8565 172.674 42.6287 172.086 45.4989 170.979C48.82 169.695 50.9658 167.713 51.0615 165.417C51.1298 163.804 50.2005 162.259 48.533 160.934C45.7722 158.733 40.9749 157.162 35.4533 156.915Z" fill="#FFCE00"/>
<path d="M40.729 188.897C37.1891 189.786 34.1276 192.096 31.8178 194.405C28.852 197.371 27.1162 200.337 27.1162 200.337C27.1162 200.337 30.1094 202.182 34.1823 203.398C37.2848 204.328 41.016 204.902 44.5148 204.027C48.4921 203.029 51.9363 201.389 54.3827 199.503C57.1982 197.33 58.688 194.815 58.1276 192.588C57.7312 191.016 56.3918 189.813 54.4237 189.02C51.1299 187.695 46.0866 187.558 40.729 188.897Z" fill="#FFCE00"/>
<path d="M60.8883 223.462C58.4008 226.141 57.1024 229.735 56.4191 232.934C55.5444 237.034 55.7084 240.478 55.7084 240.478C55.7084 240.478 59.2209 240.382 63.2938 239.193C66.3963 238.278 69.8405 236.733 72.3006 234.082C75.0888 231.075 77.0842 227.822 78.1093 224.911C79.2847 221.549 79.1617 218.637 77.4806 217.066C76.3052 215.959 74.5147 215.672 72.4236 216.095C68.9658 216.792 64.6469 219.417 60.8883 223.462Z" fill="#FFCE00"/>
<path d="M104.378 205.777C119.768 217.954 141.485 215.877 157.585 207.731C157.995 207.499 158.405 207.266 158.802 207.02C179.221 194.72 186.492 171.212 181.367 148.127C181.148 147.43 180.916 146.733 180.67 146.05C178.948 141.239 176.501 136.496 173.317 132.109C171.499 129.608 169.449 127.189 167.153 124.961C164.856 122.733 162.342 120.67 159.608 118.824C154.169 115.134 147.895 112.36 141.198 110.911C134.501 109.449 127.408 109.38 120.519 110.774C117.13 111.444 113.795 112.647 110.679 114.219C107.563 115.79 104.679 117.84 102.123 120.191C99.5945 122.597 97.3804 125.316 95.6036 128.296C93.8269 131.262 92.5421 134.501 91.6537 137.808C90.8337 141.13 90.41 144.547 90.533 147.922L90.574 149.193L90.6834 150.451L90.738 151.08L90.82 151.708L90.984 152.966C91.2847 154.619 91.6264 156.273 92.1184 157.872C93.0205 160.988 94.4829 163.968 96.3143 166.619C97.2437 167.945 98.2414 169.216 99.3348 170.392C100.428 171.567 101.604 172.66 102.847 173.685C107.822 177.717 113.918 180.26 120.082 180.902C121.626 181.052 123.157 181.107 124.688 181.052C126.219 180.984 127.736 180.806 129.225 180.547L130.387 180.301C130.497 180.273 130.579 180.26 130.661 180.232L130.893 180.164L131.371 180.041C132.027 179.849 132.738 179.617 133.394 179.357C134.733 178.838 135.991 178.196 137.18 177.458C139.558 175.968 141.581 174.027 143.18 171.813C144.779 169.599 145.872 167.098 146.487 164.515C146.802 163.23 146.979 161.904 147.034 160.592C147.089 159.28 147.007 157.954 146.815 156.656C146.774 156.328 146.72 156 146.651 155.685L146.569 155.207L146.542 155.084C146.651 155.508 146.556 155.111 146.569 155.18L146.487 154.893L146.173 153.731L146.023 153.157L145.859 152.788C145.64 152.296 145.531 151.818 145.203 151.244L144.793 150.41C144.656 150.123 144.465 149.877 144.314 149.617C143.016 147.512 141.307 145.667 139.312 144.232C137.33 142.783 135.075 141.745 132.765 141.143C130.456 140.528 128.064 140.392 125.768 140.679L125.549 140.692C125.604 140.679 125.262 140.733 125.645 140.665L125.508 140.692L124.989 140.788C124.647 140.856 124.292 140.925 123.95 140.993C123.69 141.061 123.513 141.13 123.28 141.198L122.952 141.294L122.788 141.335L122.61 141.417C122.132 141.635 121.613 141.772 121.162 142.045L120.465 142.401L119.822 142.824C119.371 143.084 119.002 143.453 118.592 143.754C118.374 143.904 118.223 144.109 118.032 144.273C117.854 144.465 117.649 144.629 117.485 144.82C116.829 145.599 116.2 146.392 115.763 147.294C114.834 149.057 114.287 151.011 114.273 152.979C114.273 153.225 114.287 153.471 114.287 153.717C114.301 153.963 114.287 154.209 114.328 154.455C114.355 154.701 114.383 154.947 114.424 155.18L114.465 155.549C114.506 155.74 114.41 155.398 114.437 155.48L114.465 155.59L114.519 155.808C114.588 156.109 114.656 156.396 114.724 156.697C114.752 156.875 114.793 156.916 114.82 157.025L114.916 157.298C114.998 157.64 115.216 158.077 115.394 158.501C116.173 160.155 117.403 161.562 118.811 162.67C120.219 163.79 121.872 164.501 123.526 164.897L124.141 165.048C124.346 165.075 124.565 165.102 124.77 165.13C124.975 165.157 125.194 165.198 125.399 165.212C125.604 165.225 125.822 165.225 126.027 165.239C126.437 165.28 126.847 165.239 127.257 165.212L127.558 165.198H127.64C127.777 165.171 127.544 165.225 127.613 165.212L127.79 165.184C128.036 165.143 128.269 165.102 128.515 165.061L128.692 165.034C128.747 165.02 128.774 165.007 128.815 165.007L129.048 164.938C129.212 164.897 129.362 164.87 129.526 164.815C129.868 164.679 130.237 164.583 130.551 164.405C130.715 164.323 130.879 164.241 131.043 164.159C131.194 164.064 131.344 163.968 131.508 163.872C131.822 163.695 132.082 163.449 132.369 163.244C133.449 162.342 134.269 161.193 134.788 159.991C135.308 158.774 135.513 157.49 135.458 156.273C135.444 155.972 135.403 155.672 135.376 155.371L135.362 155.262C135.362 155.275 135.335 155.152 135.376 155.275L135.362 155.207L135.308 154.961C135.267 154.797 135.239 154.633 135.198 154.469C135.116 154.196 135.048 153.977 134.979 153.731C134.87 153.485 134.774 153.225 134.665 152.979C134.2 152.023 133.572 151.203 132.888 150.56C132.191 149.918 131.467 149.453 130.77 149.084C129.362 148.387 128.118 148.196 127.285 148.155C126.861 148.114 126.547 148.141 126.342 148.141C126.123 148.141 126.014 148.155 126.014 148.155L125.863 147.253C125.863 147.253 125.986 147.225 126.219 147.184C126.451 147.143 126.793 147.048 127.257 147.02C128.187 146.925 129.636 146.911 131.412 147.485C132.301 147.772 133.257 148.223 134.214 148.893C135.171 149.562 136.114 150.478 136.907 151.654C137.098 151.954 137.276 152.269 137.467 152.597C137.631 152.938 137.822 153.335 137.959 153.69C138.014 153.854 138.068 154.004 138.123 154.168L138.205 154.414L138.232 154.483L138.273 154.619L138.301 154.756C138.383 155.139 138.478 155.535 138.547 155.931C138.806 157.531 138.765 159.348 138.232 161.152C137.713 162.957 136.756 164.788 135.267 166.305C134.884 166.66 134.515 167.07 134.064 167.385C133.845 167.549 133.64 167.713 133.408 167.89C133.175 168.041 132.943 168.178 132.711 168.328C132.246 168.642 131.727 168.861 131.221 169.121C130.961 169.244 130.647 169.339 130.36 169.449L129.909 169.613L129.69 169.681L129.513 169.736C129.28 169.804 129.048 169.859 128.815 169.927L128.638 169.982C128.638 169.982 128.351 170.036 128.419 170.023L128.31 170.036L127.886 170.105C127.326 170.2 126.738 170.31 126.15 170.323C125.85 170.337 125.563 170.364 125.262 170.378C124.961 170.392 124.674 170.364 124.36 170.364C124.059 170.351 123.759 170.337 123.458 170.323C123.157 170.282 122.856 170.255 122.556 170.214C122.255 170.173 121.941 170.146 121.64 170.077C121.339 170.009 121.039 169.941 120.724 169.859C120.109 169.736 119.522 169.503 118.907 169.298C118.305 169.093 117.731 168.793 117.13 168.547C116.569 168.232 115.968 167.931 115.421 167.562C113.194 166.127 111.13 164.146 109.654 161.644C109.298 161.002 108.929 160.401 108.629 159.608L108.396 159.034C108.328 158.856 108.232 158.624 108.191 158.501C108.096 158.214 108 157.927 107.918 157.64L107.85 157.421L107.809 157.312C107.809 157.312 107.713 156.902 107.74 157.011L107.631 156.478C107.563 156.109 107.494 155.754 107.412 155.385C107.33 155.029 107.303 154.647 107.262 154.278C107.221 153.909 107.194 153.526 107.153 153.157C106.961 150.123 107.549 146.938 108.875 143.986C109.517 142.496 110.419 141.102 111.417 139.777C111.677 139.449 111.964 139.148 112.237 138.834C112.524 138.533 112.784 138.191 113.098 137.918C113.713 137.357 114.328 136.742 115.025 136.264C115.367 136.018 115.708 135.758 116.064 135.499C116.433 135.28 116.802 135.061 117.171 134.829C117.895 134.364 118.702 134.036 119.481 133.654L119.781 133.517L120.109 133.394L120.779 133.162C121.216 133.011 121.708 132.847 122.118 132.724C122.46 132.642 122.802 132.56 123.157 132.465L123.677 132.342L123.813 132.314C124.278 132.232 124.032 132.273 124.182 132.246L124.497 132.205C127.831 131.617 131.358 131.685 134.788 132.424C138.232 133.148 141.581 134.569 144.601 136.619C147.608 138.656 150.328 141.321 152.378 144.519C152.624 144.929 152.911 145.312 153.13 145.736L153.8 147.007C154.251 147.813 154.633 148.852 155.016 149.822L155.303 150.574L155.467 151.148L155.795 152.296L155.877 152.583C155.918 152.733 155.85 152.433 155.973 152.966L156.014 153.143L156.15 153.84C156.26 154.305 156.342 154.77 156.396 155.248C156.984 159.007 156.861 162.97 155.945 166.797C155.043 170.624 153.321 174.301 150.957 177.526C148.592 180.765 145.531 183.499 142.059 185.576C140.323 186.615 138.478 187.476 136.565 188.146C135.608 188.487 134.665 188.761 133.64 189.02L132.847 189.212L132.451 189.307C132.314 189.335 132.178 189.362 132.082 189.389L130.688 189.635C129.718 189.772 128.733 189.881 127.763 189.963C126.779 190.045 125.795 190.086 124.811 190.1C122.802 190.059 120.738 190.059 118.907 189.69C118.128 189.581 117.349 189.444 116.569 189.294C109.599 187.872 102.97 184.619 97.5854 179.877C94.5786 177.253 91.9954 174.137 89.9043 170.72C87.8679 167.262 86.3371 163.517 85.4624 159.567C83.7813 151.886 84.2733 143.74 86.8428 136.401C88.1549 132.738 89.8906 129.253 92.1184 126.123C94.2779 122.952 96.9157 120.15 99.8269 117.704C101.289 116.501 102.793 115.353 104.405 114.355C105.185 113.822 106.018 113.385 106.825 112.906C107.235 112.674 107.658 112.469 108.068 112.25C108.478 112.032 108.902 111.813 109.326 111.635C112.715 110.036 116.269 108.861 119.932 108.137C127.162 106.729 134.583 106.66 141.731 107.808C148.893 108.957 155.795 111.335 162.068 114.738C168.342 118.141 173.973 122.638 178.551 127.913C182.569 132.533 185.768 137.767 187.982 143.289C188.296 144.082 188.597 144.875 188.884 145.667C197.262 172.483 185.877 203.508 161.084 216.588C160.633 216.834 160.169 217.08 159.704 217.312C159.239 217.544 158.774 217.777 158.31 217.995C139.353 227.303 117.636 221.098 104.296 206.228C104.364 205.831 104.378 205.777 104.378 205.777Z" fill="#FFD000"/>
<path d="M313.23 148.387L311.303 152.091C310.538 151.872 309.758 151.544 308.979 151.121C308.761 150.998 307.599 150.232 305.481 148.811C303.772 149.563 301.886 149.932 299.822 149.932C295.708 149.932 292.524 148.702 290.269 146.255C288.109 143.891 287.016 140.624 287.016 136.469C287.016 132.369 288.096 129.116 290.241 126.738C292.483 124.251 295.626 123.007 299.672 123.007C303.704 123.007 306.834 124.251 309.048 126.752C311.18 129.144 312.246 132.383 312.246 136.456C312.246 138.697 311.932 140.665 311.303 142.387C310.825 143.699 310.073 144.957 309.034 146.173C310.305 147.116 311.713 147.841 313.23 148.387ZM306.82 136.483C306.82 133.886 306.287 131.795 305.207 130.237C303.963 128.433 302.105 127.517 299.631 127.517C297.157 127.517 295.298 128.433 294.041 130.251C292.961 131.809 292.428 133.886 292.428 136.483C292.428 139.039 292.948 141.116 293.986 142.729C295.216 144.629 297.048 145.572 299.467 145.572C300.219 145.572 300.943 145.449 301.613 145.203C300.547 144.506 299.467 143.959 298.36 143.576L299.836 140.583C301.572 141.171 303.212 142.059 304.784 143.248C306.15 141.636 306.82 139.394 306.82 136.483Z" fill="#0C86A7"/>
<path d="M339.84 149.494H334.127L331.858 143.576H321.458L319.312 149.494H313.722L323.863 123.471H329.426L339.84 149.494ZM330.164 139.216L326.583 129.553L323.084 139.216H330.164Z" fill="#0C86A7"/>
<path d="M361.517 149.494H340.373V144.751L354.041 127.872H341.918V123.471H360.956V127.558L346.688 145.12H361.517V149.494Z" fill="#0C86A7"/>
<path d="M388.305 149.494H382.592L380.323 143.576H369.923L367.777 149.494H362.187L372.328 123.471H377.891L388.305 149.494ZM378.629 139.216L375.048 129.553L371.549 139.216H378.629Z" fill="#0C86A7"/>
<path d="M416.228 148.387L414.3 152.091C413.535 151.872 412.756 151.544 411.977 151.121C411.758 150.998 410.597 150.232 408.478 148.811C406.77 149.563 404.884 149.932 402.82 149.932C398.706 149.932 395.521 148.702 393.266 146.255C391.107 143.891 390.013 140.624 390.013 136.469C390.013 132.369 391.093 129.116 393.253 126.738C395.494 124.251 398.624 123.007 402.683 123.007C406.715 123.007 409.845 124.251 412.059 126.752C414.191 129.144 415.257 132.383 415.257 136.456C415.257 138.697 414.943 140.665 414.314 142.387C413.836 143.699 413.084 144.957 412.045 146.173C413.303 147.116 414.71 147.841 416.228 148.387ZM409.818 136.483C409.818 133.886 409.285 131.795 408.205 130.237C406.961 128.433 405.102 127.517 402.628 127.517C400.155 127.517 398.296 128.433 397.038 130.251C395.959 131.809 395.426 133.886 395.426 136.483C395.426 139.039 395.945 141.116 396.984 142.729C398.214 144.629 400.045 145.572 402.464 145.572C403.216 145.572 403.941 145.449 404.61 145.203C403.544 144.506 402.464 143.959 401.357 143.576L402.833 140.583C404.569 141.171 406.209 142.059 407.781 143.248C409.134 141.636 409.818 139.394 409.818 136.483Z" fill="#0C86A7"/>
<path d="M452.897 145.913C451.626 147.143 449.904 148.141 447.69 148.892C445.64 149.589 443.672 149.945 441.758 149.945C439.161 149.945 436.865 149.425 434.884 148.387C432.738 147.239 431.139 145.558 430.073 143.33C429.061 141.211 428.542 138.902 428.542 136.4C428.542 133.749 429.075 131.398 430.141 129.348C431.303 127.161 432.997 125.48 435.239 124.318C436.92 123.457 438.997 123.02 441.471 123.02C447.745 123.02 451.435 125.576 452.556 130.674L447.335 131.644C446.542 128.883 444.587 127.503 441.471 127.503C438.943 127.503 437.029 128.337 435.717 130.004C434.542 131.508 433.954 133.558 433.954 136.168C433.954 138.861 434.515 141.006 435.622 142.605C436.92 144.492 438.847 145.435 441.403 145.435C443.603 145.435 445.653 144.697 447.567 143.22V139.913H441.553V135.553H452.884V145.913H452.897Z" fill="#0C86A7"/>
<path d="M481.134 149.494H474.847L471.048 143.836C469.913 142.141 469.285 141.226 469.189 141.089C468.287 139.914 467.467 139.189 466.701 138.93C466.141 138.738 465.266 138.643 464.05 138.643H462.984V149.508H457.736V123.485H468.793C471.089 123.485 472.77 123.622 473.849 123.895C475.654 124.346 476.993 125.276 477.881 126.684C478.633 127.886 479.016 129.253 479.016 130.784C479.016 134.952 476.72 137.358 472.141 138.028C473.439 138.779 474.547 139.709 475.476 140.816C476.023 141.485 476.843 142.688 477.95 144.438L481.134 149.494ZM473.617 131.098C473.617 129.28 472.729 128.242 470.938 127.955C470.556 127.9 469.285 127.873 467.111 127.873H463.011V134.474H466.893C468.82 134.474 469.927 134.46 470.214 134.419C471.622 134.269 472.578 133.804 473.084 133.053C473.439 132.533 473.617 131.877 473.617 131.098Z" fill="#0C86A7"/>
<path d="M503.781 149.494H483.977V123.471H503.275V127.872H489.239V133.64H502.305V138H489.239V145.12H503.781V149.494Z" fill="#0C86A7"/>
<path d="M528.027 149.494H508.237V123.471H527.521V127.872H513.485V133.64H526.551V138H513.485V145.12H528.027V149.494Z" fill="#0C86A7"/>
<path d="M553.189 149.494H547.927L537.43 132.519V149.494H532.551V123.471H537.676L548.31 140.842V123.471H553.189V149.494Z" fill="#0C86A7"/>
<path d="M344.829 190.032H339.349L337.175 184.114H327.225L325.162 190.032H319.818L329.522 164.009H334.838L344.829 190.032ZM335.563 179.754L332.132 170.091L328.784 179.754H335.563Z" fill="#1987A8"/>
<path d="M362.651 184.141C362.651 186.287 361.749 187.927 359.959 189.061C358.469 189.991 356.624 190.469 354.437 190.469C349.626 190.469 346.729 188.528 345.786 184.661L350.583 183.895C351.007 185.877 352.292 186.861 354.451 186.861C356.733 186.861 357.868 186.178 357.868 184.825C357.868 184.059 357.226 183.526 355.927 183.225C352.046 182.323 349.599 181.517 348.588 180.793C347.166 179.781 346.442 178.36 346.442 176.556C346.442 174.519 347.262 173.002 348.902 171.991C350.241 171.171 351.95 170.761 354.041 170.761C356.159 170.761 357.827 171.075 359.016 171.704C360.506 172.497 361.503 173.85 362.023 175.749L357.513 176.624C357.116 175.107 355.982 174.355 354.109 174.355C351.95 174.355 350.856 174.875 350.856 175.913C350.856 176.269 351.021 176.569 351.335 176.815C351.827 177.198 353.358 177.69 355.927 178.292C358.415 178.866 360.164 179.59 361.148 180.451C362.146 181.312 362.651 182.542 362.651 184.141Z" fill="#1987A8"/>
<path d="M382.005 184.141C382.005 186.287 381.103 187.927 379.312 189.061C377.822 189.991 375.977 190.469 373.79 190.469C368.979 190.469 366.082 188.528 365.139 184.661L369.936 183.895C370.36 185.877 371.645 186.861 373.804 186.861C376.087 186.861 377.221 186.178 377.221 184.825C377.221 184.059 376.579 183.526 375.28 183.225C371.399 182.323 368.952 181.517 367.941 180.793C366.519 179.781 365.795 178.36 365.795 176.556C365.795 174.519 366.615 173.002 368.255 171.991C369.595 171.171 371.303 170.761 373.394 170.761C375.513 170.761 377.18 171.075 378.369 171.704C379.859 172.497 380.857 173.85 381.376 175.749L376.866 176.624C376.469 175.107 375.335 174.355 373.462 174.355C371.303 174.355 370.21 174.875 370.21 175.913C370.21 176.269 370.374 176.569 370.688 176.815C371.18 177.198 372.711 177.69 375.28 178.292C377.768 178.866 379.517 179.59 380.501 180.451C381.513 181.312 382.005 182.542 382.005 184.141Z" fill="#1987A8"/>
<path d="M403.708 180.56C403.708 183.403 402.834 185.768 401.084 187.64C399.335 189.526 397.107 190.469 394.401 190.469C392.706 190.469 391.134 190.086 389.686 189.321C388.155 188.501 387.007 187.353 386.228 185.85C385.449 184.346 385.066 182.515 385.066 180.355C385.066 178.633 385.462 177.034 386.241 175.531C387.061 173.973 388.169 172.783 389.59 171.977C391.011 171.171 392.597 170.774 394.374 170.774C397.107 170.774 399.349 171.69 401.084 173.535C402.834 175.353 403.708 177.704 403.708 180.56ZM398.788 180.574C398.788 178.989 398.446 177.663 397.749 176.61C396.957 175.421 395.836 174.82 394.387 174.82C392.925 174.82 391.79 175.421 390.998 176.624C390.301 177.676 389.959 179.002 389.959 180.601C389.959 182.2 390.301 183.526 390.998 184.578C391.79 185.781 392.925 186.383 394.387 186.383C395.863 186.383 396.984 185.768 397.777 184.551C398.446 183.512 398.788 182.187 398.788 180.574Z" fill="#1987A8"/>
<path d="M423.431 183.649C422.446 188.187 419.658 190.469 415.066 190.469C412.292 190.469 410.132 189.54 408.588 187.681C407.125 185.932 406.401 183.581 406.401 180.629C406.401 177.649 407.139 175.285 408.615 173.522C410.173 171.676 412.346 170.747 415.162 170.747C419.399 170.747 422.077 172.743 423.198 176.747L418.483 177.635C418.169 175.654 417.075 174.67 415.216 174.67C412.606 174.67 411.308 176.528 411.308 180.26C411.308 184.346 412.633 186.383 415.285 186.383C417.157 186.383 418.305 185.194 418.743 182.802L423.431 183.649Z" fill="#1987A8"/>
<path d="M431.59 168.629H426.806V164.009H431.59V168.629ZM431.59 190.032H426.806V171.185H431.59V190.032Z" fill="#1987A8"/>
<path d="M452.187 190.032H447.458C447.321 189.676 447.171 189.184 446.993 188.556C446.897 188.241 446.843 188.036 446.829 187.968C445.203 189.622 443.33 190.456 441.239 190.456C439.531 190.456 438.123 189.977 437.002 189.034C435.827 188.023 435.239 186.629 435.239 184.879C435.239 182.638 436.169 181.052 438.027 180.109C438.916 179.658 440.173 179.276 441.813 178.961C444.055 178.51 445.599 178.1 446.46 177.731V177.239C446.46 176.159 446.159 175.435 445.572 175.039C445.107 174.724 444.314 174.574 443.207 174.574C441.649 174.574 440.597 175.367 440.064 176.938L435.731 176.118C436.264 174.123 437.221 172.702 438.588 171.854C439.777 171.116 441.43 170.747 443.549 170.747C447.212 170.747 449.535 171.676 450.519 173.535C450.957 174.383 451.175 175.872 451.148 178.004L451.093 183.827C451.066 186.369 451.435 188.446 452.187 190.032ZM446.446 181.982V180.984C446.228 181.052 445.257 181.298 443.535 181.708C442.169 182.036 441.307 182.337 440.938 182.61C440.31 183.061 440.009 183.649 440.009 184.373C440.009 185.125 440.269 185.74 440.788 186.219C441.307 186.711 441.936 186.943 442.661 186.943C443.535 186.943 444.355 186.642 445.121 186.055C445.681 185.617 446.064 185.071 446.255 184.401C446.392 183.977 446.446 183.157 446.446 181.982Z" fill="#1987A8"/>
<path d="M464.528 189.718C463.421 190.21 462.164 190.47 460.756 190.47C458.925 190.47 457.64 189.923 456.916 188.843C456.601 188.378 456.369 187.736 456.232 186.902C456.137 186.274 456.082 185.098 456.082 183.39V175.176H453.895V171.199H456.082V167.454L460.866 164.542V171.199H464.146V175.176H460.866V182.775C460.866 184.237 460.866 184.825 460.866 184.538C460.893 185.344 461.084 185.864 461.412 186.096C461.631 186.26 461.891 186.342 462.205 186.342C462.642 186.342 463.285 186.178 464.132 185.864L464.528 189.718Z" fill="#1987A8"/>
<path d="M472.223 168.629H467.44V164.009H472.223V168.629ZM472.223 190.032H467.44V171.185H472.223V190.032Z" fill="#1987A8"/>
<path d="M494.651 180.56C494.651 183.403 493.777 185.768 492.027 187.64C490.278 189.526 488.05 190.469 485.344 190.469C483.649 190.469 482.077 190.086 480.629 189.321C479.098 188.501 477.95 187.353 477.171 185.85C476.392 184.346 476.009 182.515 476.009 180.355C476.009 178.633 476.405 177.034 477.184 175.531C478.004 173.973 479.112 172.783 480.533 171.977C481.954 171.171 483.54 170.774 485.317 170.774C488.05 170.774 490.292 171.69 492.027 173.535C493.777 175.353 494.651 177.704 494.651 180.56ZM489.745 180.574C489.745 178.989 489.403 177.663 488.706 176.61C487.913 175.421 486.793 174.82 485.344 174.82C483.881 174.82 482.747 175.421 481.954 176.624C481.257 177.676 480.916 179.002 480.916 180.601C480.916 182.2 481.257 183.526 481.954 184.578C482.747 185.781 483.881 186.383 485.344 186.383C486.82 186.383 487.941 185.768 488.733 184.551C489.403 183.512 489.745 182.187 489.745 180.574Z" fill="#1987A8"/>
<path d="M514.811 190.032H510.027V180.41C510.027 178.893 510 177.936 509.945 177.512C509.781 176.351 509.385 175.531 508.743 175.066C508.278 174.738 507.718 174.574 507.075 174.574C506.255 174.574 505.531 174.806 504.888 175.271C504.205 175.749 503.74 176.378 503.508 177.157C503.276 177.936 503.139 179.385 503.139 181.503V190.045H498.355V171.198H502.797V173.973C504.369 171.84 506.351 170.774 508.743 170.774C510.97 170.774 512.597 171.485 513.622 172.893C514.415 174 514.811 175.804 514.811 178.346V190.032Z" fill="#1987A8"/>
</svg>
